<svg width="95" height="33" viewBox="0 0 95 33" fill="none" xmlns="http://www.w3.org/2000/svg">
<g filter="url(#filter0_i_279_317)">
<rect width="95" height="31" rx="15.5" fill="#F0F0F0"/>
</g>
<mask id="mask0_279_317" style="mask-type:alpha" maskUnits="userSpaceOnUse" x="0" y="0" width="95" height="31">
<rect width="95" height="31" rx="15.5" fill="#F0F0F0"/>
</mask>
<g mask="url(#mask0_279_317)">
<path d="M17.1413 9.625V21H14.8053V9.625H17.1413ZM21.5591 14.3516V21H19.3091V12.5469H21.4184L21.5591 14.3516ZM21.2309 16.4766H20.6216C20.6216 15.8516 20.7023 15.2891 20.8638 14.7891C21.0252 14.2839 21.2518 13.8542 21.5434 13.5C21.8351 13.1406 22.1815 12.8672 22.5825 12.6797C22.9888 12.487 23.4419 12.3906 23.9419 12.3906C24.3377 12.3906 24.6997 12.4479 25.0278 12.5625C25.3559 12.6771 25.6372 12.8594 25.8716 13.1094C26.1111 13.3594 26.2934 13.6901 26.4184 14.1016C26.5486 14.513 26.6138 15.0156 26.6138 15.6094V21H24.3481V15.6016C24.3481 15.2266 24.296 14.9349 24.1919 14.7266C24.0877 14.5182 23.9341 14.3724 23.7309 14.2891C23.533 14.2005 23.2882 14.1562 22.9966 14.1562C22.6945 14.1562 22.4315 14.2161 22.2075 14.3359C21.9888 14.4557 21.8065 14.6224 21.6606 14.8359C21.52 15.0443 21.4132 15.2891 21.3403 15.5703C21.2674 15.8516 21.2309 16.1536 21.2309 16.4766ZM32.6253 12.5469V14.1406H27.7034V12.5469H32.6253ZM28.9222 10.4609H31.1722V18.4531C31.1722 18.6979 31.2034 18.8854 31.2659 19.0156C31.3336 19.1458 31.4326 19.237 31.5628 19.2891C31.693 19.3359 31.8571 19.3594 32.055 19.3594C32.1956 19.3594 32.3206 19.3542 32.43 19.3438C32.5446 19.3281 32.6409 19.3125 32.7191 19.2969L32.7269 20.9531C32.5342 21.0156 32.3258 21.0651 32.1019 21.1016C31.8779 21.138 31.6305 21.1562 31.3597 21.1562C30.8649 21.1562 30.4326 21.0755 30.0628 20.9141C29.6982 20.7474 29.417 20.4818 29.2191 20.1172C29.0211 19.7526 28.9222 19.2734 28.9222 18.6797V10.4609ZM37.9572 21.1562C37.3009 21.1562 36.7124 21.0521 36.1916 20.8438C35.6707 20.6302 35.228 20.3359 34.8634 19.9609C34.5041 19.5859 34.228 19.151 34.0353 18.6562C33.8426 18.1562 33.7463 17.625 33.7463 17.0625V16.75C33.7463 16.1094 33.8374 15.5234 34.0197 14.9922C34.202 14.4609 34.4624 14 34.8009 13.6094C35.1447 13.2188 35.5614 12.9193 36.0509 12.7109C36.5405 12.4974 37.0926 12.3906 37.7072 12.3906C38.3061 12.3906 38.8374 12.4896 39.3009 12.6875C39.7645 12.8854 40.1525 13.1667 40.465 13.5312C40.7827 13.8958 41.0223 14.3333 41.1838 14.8438C41.3452 15.349 41.4259 15.9115 41.4259 16.5312V17.4688H34.7072V15.9688H39.215V15.7969C39.215 15.4844 39.1577 15.2057 39.0431 14.9609C38.9338 14.7109 38.7671 14.513 38.5431 14.3672C38.3192 14.2214 38.0327 14.1484 37.6838 14.1484C37.3869 14.1484 37.1317 14.2135 36.9181 14.3438C36.7046 14.474 36.5301 14.6562 36.3947 14.8906C36.2645 15.125 36.1655 15.401 36.0978 15.7188C36.0353 16.0312 36.0041 16.375 36.0041 16.75V17.0625C36.0041 17.401 36.0509 17.7135 36.1447 18C36.2436 18.2865 36.3817 18.5339 36.5588 18.7422C36.741 18.9505 36.9598 19.112 37.215 19.2266C37.4754 19.3411 37.7697 19.3984 38.0978 19.3984C38.5041 19.3984 38.8817 19.3203 39.2306 19.1641C39.5848 19.0026 39.8895 18.7604 40.1447 18.4375L41.2384 19.625C41.0614 19.8802 40.8192 20.125 40.5119 20.3594C40.2098 20.5938 39.8452 20.7865 39.4181 20.9375C38.991 21.0833 38.5041 21.1562 37.9572 21.1562ZM45.1172 14.3906V21H42.8672V12.5469H44.9844L45.1172 14.3906ZM47.6641 12.4922L47.625 14.5781C47.5156 14.5625 47.3828 14.5495 47.2266 14.5391C47.0755 14.5234 46.9375 14.5156 46.8125 14.5156C46.4948 14.5156 46.2188 14.5573 45.9844 14.6406C45.7552 14.7188 45.5625 14.8359 45.4062 14.9922C45.2552 15.1484 45.1406 15.3385 45.0625 15.5625C44.9896 15.7865 44.9479 16.0417 44.9375 16.3281L44.4844 16.1875C44.4844 15.6406 44.5391 15.138 44.6484 14.6797C44.7578 14.2161 44.9167 13.8125 45.125 13.4688C45.3385 13.125 45.599 12.8594 45.9062 12.6719C46.2135 12.4844 46.5651 12.3906 46.9609 12.3906C47.0859 12.3906 47.2135 12.401 47.3438 12.4219C47.474 12.4375 47.5807 12.4609 47.6641 12.4922ZM51.9022 19.3594L53.7772 12.5469H56.1287L53.2772 21H51.8553L51.9022 19.3594ZM50.6131 12.5469L52.4959 19.3672L52.535 21H51.1053L48.2537 12.5469H50.6131ZM59.6716 12.5469V21H57.4137V12.5469H59.6716ZM57.2731 10.3438C57.2731 10.0156 57.3877 9.74479 57.6169 9.53125C57.846 9.31771 58.1533 9.21094 58.5387 9.21094C58.919 9.21094 59.2236 9.31771 59.4528 9.53125C59.6872 9.74479 59.8044 10.0156 59.8044 10.3438C59.8044 10.6719 59.6872 10.9427 59.4528 11.1562C59.2236 11.3698 58.919 11.4766 58.5387 11.4766C58.1533 11.4766 57.846 11.3698 57.6169 11.1562C57.3877 10.9427 57.2731 10.6719 57.2731 10.3438ZM65.5816 21.1562C64.9253 21.1562 64.3368 21.0521 63.8159 20.8438C63.2951 20.6302 62.8524 20.3359 62.4878 19.9609C62.1284 19.5859 61.8524 19.151 61.6597 18.6562C61.467 18.1562 61.3706 17.625 61.3706 17.0625V16.75C61.3706 16.1094 61.4618 15.5234 61.6441 14.9922C61.8264 14.4609 62.0868 14 62.4253 13.6094C62.7691 13.2188 63.1857 12.9193 63.6753 12.7109C64.1649 12.4974 64.717 12.3906 65.3316 12.3906C65.9305 12.3906 66.4618 12.4896 66.9253 12.6875C67.3889 12.8854 67.7769 13.1667 68.0894 13.5312C68.4071 13.8958 68.6467 14.3333 68.8081 14.8438C68.9696 15.349 69.0503 15.9115 69.0503 16.5312V17.4688H62.3316V15.9688H66.8394V15.7969C66.8394 15.4844 66.7821 15.2057 66.6675 14.9609C66.5581 14.7109 66.3915 14.513 66.1675 14.3672C65.9435 14.2214 65.6571 14.1484 65.3081 14.1484C65.0112 14.1484 64.756 14.2135 64.5425 14.3438C64.329 14.474 64.1545 14.6562 64.0191 14.8906C63.8889 15.125 63.7899 15.401 63.7222 15.7188C63.6597 16.0312 63.6284 16.375 63.6284 16.75V17.0625C63.6284 17.401 63.6753 17.7135 63.7691 18C63.868 18.2865 64.006 18.5339 64.1831 18.7422C64.3654 18.9505 64.5842 19.112 64.8394 19.2266C65.0998 19.3411 65.3941 19.3984 65.7222 19.3984C66.1284 19.3984 66.506 19.3203 66.855 19.1641C67.2092 19.0026 67.5139 18.7604 67.7691 18.4375L68.8628 19.625C68.6857 19.8802 68.4435 20.125 68.1362 20.3594C67.8342 20.5938 67.4696 20.7865 67.0425 20.9375C66.6154 21.0833 66.1284 21.1562 65.5816 21.1562ZM72.9056 18.8125L74.6634 12.5469H76.0931L75.6322 15.0078L73.8744 21H72.6791L72.9056 18.8125ZM72.015 12.5469L73.2728 18.8047L73.39 21H71.9837L69.8431 12.5469H72.015ZM77.7025 18.7031L78.9291 12.5469H81.1087L78.9681 21H77.5697L77.7025 18.7031ZM76.2884 12.5469L78.0384 18.7656L78.2806 21H77.0775L75.3197 15.0156L74.8744 12.5469H76.2884Z" fill="#8C8C8C"/>
<mask id="mask1_279_317" style="mask-type:alpha" maskUnits="userSpaceOnUse" x="0" y="0" width="95" height="31">
<rect width="95" height="31" rx="15.5" fill="#20A2A2"/>
</mask>
<g mask="url(#mask1_279_317)">
<g filter="url(#filter1_i_279_317)">
<rect width="95" height="31" rx="15.5" fill="#236AF2"/>
</g>
<path d="M28.5356 19.1719V21H22.4809V19.1719H28.5356ZM23.2466 9.625V21H20.9028V9.625H23.2466ZM27.7466 14.2578V16.0391H22.4809V14.2578H27.7466ZM28.5278 9.625V11.4609H22.4809V9.625H28.5278ZM32.1253 14.3516V21H29.8753V12.5469H31.9847L32.1253 14.3516ZM31.7972 16.4766H31.1878C31.1878 15.8516 31.2685 15.2891 31.43 14.7891C31.5915 14.2839 31.818 13.8542 32.1097 13.5C32.4014 13.1406 32.7477 12.8672 33.1488 12.6797C33.555 12.487 34.0081 12.3906 34.5081 12.3906C34.904 12.3906 35.2659 12.4479 35.5941 12.5625C35.9222 12.6771 36.2034 12.8594 36.4378 13.1094C36.6774 13.3594 36.8597 13.6901 36.9847 14.1016C37.1149 14.513 37.18 15.0156 37.18 15.6094V21H34.9144V15.6016C34.9144 15.2266 34.8623 14.9349 34.7581 14.7266C34.654 14.5182 34.5003 14.3724 34.2972 14.2891C34.0993 14.2005 33.8545 14.1562 33.5628 14.1562C33.2607 14.1562 32.9977 14.2161 32.7738 14.3359C32.555 14.4557 32.3727 14.6224 32.2269 14.8359C32.0863 15.0443 31.9795 15.2891 31.9066 15.5703C31.8336 15.8516 31.7972 16.1536 31.7972 16.4766ZM44.0431 24.25V14.2734L44.3322 12.5469H46.3088V24.25H44.0431ZM38.6994 16.8594V16.6953C38.6994 16.0495 38.7697 15.4635 38.9103 14.9375C39.0561 14.4062 39.2697 13.9531 39.5509 13.5781C39.8322 13.1979 40.1759 12.9062 40.5822 12.7031C40.9936 12.4948 41.4676 12.3906 42.0041 12.3906C42.5197 12.3906 42.965 12.4948 43.34 12.7031C43.715 12.9115 44.0301 13.2057 44.2853 13.5859C44.5457 13.9661 44.7541 14.4141 44.9103 14.9297C45.0666 15.4453 45.1864 16.0104 45.2697 16.625V16.9844C45.1916 17.5729 45.0718 18.1198 44.9103 18.625C44.7541 19.1302 44.5457 19.5729 44.2853 19.9531C44.0301 20.3333 43.7124 20.6302 43.3322 20.8438C42.9572 21.0521 42.5093 21.1562 41.9884 21.1562C41.4624 21.1562 40.9936 21.0495 40.5822 20.8359C40.1759 20.6172 39.8322 20.3151 39.5509 19.9297C39.2697 19.5443 39.0561 19.0911 38.9103 18.5703C38.7697 18.0443 38.6994 17.474 38.6994 16.8594ZM40.9494 16.6953V16.8594C40.9494 17.2083 40.978 17.5365 41.0353 17.8438C41.0926 18.1458 41.1838 18.4141 41.3088 18.6484C41.439 18.8828 41.6056 19.0677 41.8088 19.2031C42.0119 19.3333 42.2619 19.3984 42.5588 19.3984C42.9702 19.3984 43.3009 19.3099 43.5509 19.1328C43.8061 18.9505 43.9936 18.7031 44.1134 18.3906C44.2384 18.0781 44.3114 17.7214 44.3322 17.3203V16.2969C44.3166 15.9688 44.2723 15.6745 44.1994 15.4141C44.1317 15.1484 44.0275 14.9219 43.8869 14.7344C43.7515 14.5469 43.5744 14.4036 43.3556 14.3047C43.1421 14.2005 42.8817 14.1484 42.5744 14.1484C42.2827 14.1484 42.0327 14.2135 41.8244 14.3438C41.616 14.474 41.4468 14.6562 41.3166 14.8906C41.1916 15.1198 41.0978 15.388 41.0353 15.6953C40.978 16.0026 40.9494 16.3359 40.9494 16.6953ZM53.2422 18.9766V12.5469H55.4922V21H53.375L53.2422 18.9766ZM53.4922 17.2422L54.1562 17.2266C54.1562 17.7891 54.0911 18.3125 53.9609 18.7969C53.8307 19.276 53.6354 19.6927 53.375 20.0469C53.1146 20.3958 52.7865 20.6693 52.3906 20.8672C51.9948 21.0599 51.5286 21.1562 50.9922 21.1562C50.5807 21.1562 50.2005 21.099 49.8516 20.9844C49.5078 20.8646 49.2109 20.6797 48.9609 20.4297C48.7161 20.1745 48.5234 19.849 48.3828 19.4531C48.2474 19.0521 48.1797 18.5703 48.1797 18.0078V12.5469H50.4297V18.0234C50.4297 18.2734 50.4583 18.4844 50.5156 18.6562C50.5781 18.8281 50.6641 18.9688 50.7734 19.0781C50.8828 19.1875 51.0104 19.2656 51.1562 19.3125C51.3073 19.3594 51.474 19.3828 51.6562 19.3828C52.1198 19.3828 52.4844 19.2891 52.75 19.1016C53.0208 18.9141 53.2109 18.6589 53.3203 18.3359C53.4349 18.0078 53.4922 17.6432 53.4922 17.2422ZM59.7459 12.5469V21H57.4881V12.5469H59.7459ZM57.3475 10.3438C57.3475 10.0156 57.4621 9.74479 57.6912 9.53125C57.9204 9.31771 58.2277 9.21094 58.6131 9.21094C58.9933 9.21094 59.298 9.31771 59.5272 9.53125C59.7616 9.74479 59.8787 10.0156 59.8787 10.3438C59.8787 10.6719 59.7616 10.9427 59.5272 11.1562C59.298 11.3698 58.9933 11.4766 58.6131 11.4766C58.2277 11.4766 57.9204 11.3698 57.6912 11.1562C57.4621 10.9427 57.3475 10.6719 57.3475 10.3438ZM64.0153 14.3906V21H61.7653V12.5469H63.8825L64.0153 14.3906ZM66.5622 12.4922L66.5231 14.5781C66.4137 14.5625 66.2809 14.5495 66.1247 14.5391C65.9736 14.5234 65.8356 14.5156 65.7106 14.5156C65.3929 14.5156 65.1169 14.5573 64.8825 14.6406C64.6533 14.7188 64.4606 14.8359 64.3044 14.9922C64.1533 15.1484 64.0387 15.3385 63.9606 15.5625C63.8877 15.7865 63.846 16.0417 63.8356 16.3281L63.3825 16.1875C63.3825 15.6406 63.4372 15.138 63.5466 14.6797C63.6559 14.2161 63.8148 13.8125 64.0231 13.4688C64.2367 13.125 64.4971 12.8594 64.8044 12.6719C65.1117 12.4844 65.4632 12.3906 65.8591 12.3906C65.9841 12.3906 66.1117 12.401 66.2419 12.4219C66.3721 12.4375 66.4789 12.4609 66.5622 12.4922ZM70.4331 20.0469L72.6753 12.5469H75.0894L71.6909 22.2734C71.618 22.487 71.5191 22.7161 71.3941 22.9609C71.2743 23.2057 71.1102 23.4375 70.9019 23.6562C70.6987 23.8802 70.4409 24.0625 70.1284 24.2031C69.8211 24.3438 69.4435 24.4141 68.9956 24.4141C68.7821 24.4141 68.6076 24.401 68.4722 24.375C68.3368 24.349 68.1753 24.3125 67.9878 24.2656V22.6172C68.0451 22.6172 68.105 22.6172 68.1675 22.6172C68.23 22.6224 68.2899 22.625 68.3472 22.625C68.6441 22.625 68.8862 22.5911 69.0737 22.5234C69.2612 22.4557 69.4123 22.3516 69.5269 22.2109C69.6415 22.0755 69.7326 21.8984 69.8003 21.6797L70.4331 20.0469ZM69.4956 12.5469L71.3316 18.6719L71.6519 21.0547L70.1206 21.2188L67.0816 12.5469H69.4956Z" fill="white"/>
</g>
</g>
<defs>
<filter id="filter0_i_279_317" x="0" y="0" width="95" height="33" filterUnits="userSpaceOnUse" color-interpolation-filters="sRGB">
<feFlood flood-opacity="0" result="BackgroundImageFix"/>
<feBlend mode="normal" in="SourceGraphic" in2="BackgroundImageFix" result="shape"/>
<feColorMatrix in="SourceAlpha" type="matrix" values="0 0 0 0 0 0 0 0 0 0 0 0 0 0 0 0 0 0 127 0" result="hardAlpha"/>
<feOffset dy="2"/>
<feGaussianBlur stdDeviation="1"/>
<feComposite in2="hardAlpha" operator="arithmetic" k2="-1" k3="1"/>
<feColorMatrix type="matrix" values="0 0 0 0 0 0 0 0 0 0 0 0 0 0 0 0 0 0 0.1 0"/>
<feBlend mode="normal" in2="shape" result="effect1_innerShadow_279_317"/>
</filter>
<filter id="filter1_i_279_317" x="0" y="0" width="95" height="33" filterUnits="userSpaceOnUse" color-interpolation-filters="sRGB">
<feFlood flood-opacity="0" result="BackgroundImageFix"/>
<feBlend mode="normal" in="SourceGraphic" in2="BackgroundImageFix" result="shape"/>
<feColorMatrix in="SourceAlpha" type="matrix" values="0 0 0 0 0 0 0 0 0 0 0 0 0 0 0 0 0 0 127 0" result="hardAlpha"/>
<feOffset dy="2"/>
<feGaussianBlur stdDeviation="1"/>
<feComposite in2="hardAlpha" operator="arithmetic" k2="-1" k3="1"/>
<feColorMatrix type="matrix" values="0 0 0 0 0 0 0 0 0 0 0 0 0 0 0 0 0 0 0.1 0"/>
<feBlend mode="normal" in2="shape" result="effect1_innerShadow_279_317"/>
</filter>
</defs>
</svg>
