<svg width="95" height="33" viewBox="0 0 95 33" fill="none" xmlns="http://www.w3.org/2000/svg">
<g filter="url(#filter0_i_315_251)">
<rect width="95" height="31" rx="15.5" fill="#F0F0F0"/>
</g>
<mask id="mask0_315_251" style="mask-type:alpha" maskUnits="userSpaceOnUse" x="0" y="0" width="95" height="31">
<rect width="95" height="31" rx="15.5" fill="#F0F0F0"/>
</mask>
<g mask="url(#mask0_315_251)">
<path d="M17.1413 9.625V21H14.8053V9.625H17.1413ZM21.5591 14.3516V21H19.3091V12.5469H21.4184L21.5591 14.3516ZM21.2309 16.4766H20.6216C20.6216 15.8516 20.7023 15.2891 20.8638 14.7891C21.0252 14.2839 21.2518 13.8542 21.5434 13.5C21.8351 13.1406 22.1815 12.8672 22.5825 12.6797C22.9888 12.487 23.4419 12.3906 23.9419 12.3906C24.3377 12.3906 24.6997 12.4479 25.0278 12.5625C25.3559 12.6771 25.6372 12.8594 25.8716 13.1094C26.1111 13.3594 26.2934 13.6901 26.4184 14.1016C26.5486 14.513 26.6138 15.0156 26.6138 15.6094V21H24.3481V15.6016C24.3481 15.2266 24.296 14.9349 24.1919 14.7266C24.0877 14.5182 23.9341 14.3724 23.7309 14.2891C23.533 14.2005 23.2882 14.1562 22.9966 14.1562C22.6945 14.1562 22.4315 14.2161 22.2075 14.3359C21.9888 14.4557 21.8065 14.6224 21.6606 14.8359C21.52 15.0443 21.4132 15.2891 21.3403 15.5703C21.2674 15.8516 21.2309 16.1536 21.2309 16.4766ZM32.6253 12.5469V14.1406H27.7034V12.5469H32.6253ZM28.9222 10.4609H31.1722V18.4531C31.1722 18.6979 31.2034 18.8854 31.2659 19.0156C31.3336 19.1458 31.4326 19.237 31.5628 19.2891C31.693 19.3359 31.8571 19.3594 32.055 19.3594C32.1956 19.3594 32.3206 19.3542 32.43 19.3438C32.5446 19.3281 32.6409 19.3125 32.7191 19.2969L32.7269 20.9531C32.5342 21.0156 32.3258 21.0651 32.1019 21.1016C31.8779 21.138 31.6305 21.1562 31.3597 21.1562C30.8649 21.1562 30.4326 21.0755 30.0628 20.9141C29.6982 20.7474 29.417 20.4818 29.2191 20.1172C29.0211 19.7526 28.9222 19.2734 28.9222 18.6797V10.4609ZM37.9572 21.1562C37.3009 21.1562 36.7124 21.0521 36.1916 20.8438C35.6707 20.6302 35.228 20.3359 34.8634 19.9609C34.5041 19.5859 34.228 19.151 34.0353 18.6562C33.8426 18.1562 33.7463 17.625 33.7463 17.0625V16.75C33.7463 16.1094 33.8374 15.5234 34.0197 14.9922C34.202 14.4609 34.4624 14 34.8009 13.6094C35.1447 13.2188 35.5614 12.9193 36.0509 12.7109C36.5405 12.4974 37.0926 12.3906 37.7072 12.3906C38.3061 12.3906 38.8374 12.4896 39.3009 12.6875C39.7645 12.8854 40.1525 13.1667 40.465 13.5312C40.7827 13.8958 41.0223 14.3333 41.1838 14.8438C41.3452 15.349 41.4259 15.9115 41.4259 16.5312V17.4688H34.7072V15.9688H39.215V15.7969C39.215 15.4844 39.1577 15.2057 39.0431 14.9609C38.9338 14.7109 38.7671 14.513 38.5431 14.3672C38.3192 14.2214 38.0327 14.1484 37.6838 14.1484C37.3869 14.1484 37.1317 14.2135 36.9181 14.3438C36.7046 14.474 36.5301 14.6562 36.3947 14.8906C36.2645 15.125 36.1655 15.401 36.0978 15.7188C36.0353 16.0312 36.0041 16.375 36.0041 16.75V17.0625C36.0041 17.401 36.0509 17.7135 36.1447 18C36.2436 18.2865 36.3817 18.5339 36.5588 18.7422C36.741 18.9505 36.9598 19.112 37.215 19.2266C37.4754 19.3411 37.7697 19.3984 38.0978 19.3984C38.5041 19.3984 38.8817 19.3203 39.2306 19.1641C39.5848 19.0026 39.8895 18.7604 40.1447 18.4375L41.2384 19.625C41.0614 19.8802 40.8192 20.125 40.5119 20.3594C40.2098 20.5938 39.8452 20.7865 39.4181 20.9375C38.991 21.0833 38.5041 21.1562 37.9572 21.1562ZM45.1172 14.3906V21H42.8672V12.5469H44.9844L45.1172 14.3906ZM47.6641 12.4922L47.625 14.5781C47.5156 14.5625 47.3828 14.5495 47.2266 14.5391C47.0755 14.5234 46.9375 14.5156 46.8125 14.5156C46.4948 14.5156 46.2188 14.5573 45.9844 14.6406C45.7552 14.7188 45.5625 14.8359 45.4062 14.9922C45.2552 15.1484 45.1406 15.3385 45.0625 15.5625C44.9896 15.7865 44.9479 16.0417 44.9375 16.3281L44.4844 16.1875C44.4844 15.6406 44.5391 15.138 44.6484 14.6797C44.7578 14.2161 44.9167 13.8125 45.125 13.4688C45.3385 13.125 45.599 12.8594 45.9062 12.6719C46.2135 12.4844 46.5651 12.3906 46.9609 12.3906C47.0859 12.3906 47.2135 12.401 47.3438 12.4219C47.474 12.4375 47.5807 12.4609 47.6641 12.4922ZM51.9022 19.3594L53.7772 12.5469H56.1287L53.2772 21H51.8553L51.9022 19.3594ZM50.6131 12.5469L52.4959 19.3672L52.535 21H51.1053L48.2537 12.5469H50.6131ZM59.6716 12.5469V21H57.4137V12.5469H59.6716ZM57.2731 10.3438C57.2731 10.0156 57.3877 9.74479 57.6169 9.53125C57.846 9.31771 58.1533 9.21094 58.5387 9.21094C58.919 9.21094 59.2236 9.31771 59.4528 9.53125C59.6872 9.74479 59.8044 10.0156 59.8044 10.3438C59.8044 10.6719 59.6872 10.9427 59.4528 11.1562C59.2236 11.3698 58.919 11.4766 58.5387 11.4766C58.1533 11.4766 57.846 11.3698 57.6169 11.1562C57.3877 10.9427 57.2731 10.6719 57.2731 10.3438ZM65.5816 21.1562C64.9253 21.1562 64.3368 21.0521 63.8159 20.8438C63.2951 20.6302 62.8524 20.3359 62.4878 19.9609C62.1284 19.5859 61.8524 19.151 61.6597 18.6562C61.467 18.1562 61.3706 17.625 61.3706 17.0625V16.75C61.3706 16.1094 61.4618 15.5234 61.6441 14.9922C61.8264 14.4609 62.0868 14 62.4253 13.6094C62.7691 13.2188 63.1857 12.9193 63.6753 12.7109C64.1649 12.4974 64.717 12.3906 65.3316 12.3906C65.9305 12.3906 66.4618 12.4896 66.9253 12.6875C67.3889 12.8854 67.7769 13.1667 68.0894 13.5312C68.4071 13.8958 68.6467 14.3333 68.8081 14.8438C68.9696 15.349 69.0503 15.9115 69.0503 16.5312V17.4688H62.3316V15.9688H66.8394V15.7969C66.8394 15.4844 66.7821 15.2057 66.6675 14.9609C66.5581 14.7109 66.3915 14.513 66.1675 14.3672C65.9435 14.2214 65.6571 14.1484 65.3081 14.1484C65.0112 14.1484 64.756 14.2135 64.5425 14.3438C64.329 14.474 64.1545 14.6562 64.0191 14.8906C63.8889 15.125 63.7899 15.401 63.7222 15.7188C63.6597 16.0312 63.6284 16.375 63.6284 16.75V17.0625C63.6284 17.401 63.6753 17.7135 63.7691 18C63.868 18.2865 64.006 18.5339 64.1831 18.7422C64.3654 18.9505 64.5842 19.112 64.8394 19.2266C65.0998 19.3411 65.3941 19.3984 65.7222 19.3984C66.1284 19.3984 66.506 19.3203 66.855 19.1641C67.2092 19.0026 67.5139 18.7604 67.7691 18.4375L68.8628 19.625C68.6857 19.8802 68.4435 20.125 68.1362 20.3594C67.8342 20.5938 67.4696 20.7865 67.0425 20.9375C66.6154 21.0833 66.1284 21.1562 65.5816 21.1562ZM72.9056 18.8125L74.6634 12.5469H76.0931L75.6322 15.0078L73.8744 21H72.6791L72.9056 18.8125ZM72.015 12.5469L73.2728 18.8047L73.39 21H71.9837L69.8431 12.5469H72.015ZM77.7025 18.7031L78.9291 12.5469H81.1087L78.9681 21H77.5697L77.7025 18.7031ZM76.2884 12.5469L78.0384 18.7656L78.2806 21H77.0775L75.3197 15.0156L74.8744 12.5469H76.2884Z" fill="#8C8C8C"/>
<mask id="mask1_315_251" style="mask-type:alpha" maskUnits="userSpaceOnUse" x="0" y="0" width="95" height="31">
<rect width="95" height="31" rx="15.5" fill="#20A2A2"/>
</mask>
<g mask="url(#mask1_315_251)">
<g filter="url(#filter1_i_315_251)">
<rect width="95" height="31" rx="15.5" fill="#236AF2"/>
</g>
<path d="M36.3831 19.1719V21H30.3284V19.1719H36.3831ZM31.0941 9.625V21H28.7503V9.625H31.0941ZM35.5941 14.2578V16.0391H30.3284V14.2578H35.5941ZM36.3753 9.625V11.4609H30.3284V9.625H36.3753ZM40.0197 14.2969V21H37.7619V12.5469H39.8791L40.0197 14.2969ZM39.7072 16.4766H39.0822C39.0822 15.888 39.1525 15.3464 39.2931 14.8516C39.439 14.3516 39.6499 13.9193 39.9259 13.5547C40.2072 13.1849 40.5535 12.8984 40.965 12.6953C41.3765 12.4922 41.853 12.3906 42.3947 12.3906C42.7697 12.3906 43.1134 12.4479 43.4259 12.5625C43.7384 12.6719 44.0067 12.8464 44.2306 13.0859C44.4598 13.3203 44.6369 13.6276 44.7619 14.0078C44.8869 14.3828 44.9494 14.8333 44.9494 15.3594V21H42.6994V15.6094C42.6994 15.224 42.6473 14.9271 42.5431 14.7188C42.439 14.5104 42.2905 14.3646 42.0978 14.2812C41.9103 14.1979 41.6838 14.1562 41.4181 14.1562C41.1265 14.1562 40.8713 14.2161 40.6525 14.3359C40.439 14.4557 40.2619 14.6224 40.1213 14.8359C39.9806 15.0443 39.8765 15.2891 39.8088 15.5703C39.741 15.8516 39.7072 16.1536 39.7072 16.4766ZM44.7384 16.2188L43.9338 16.3203C43.9338 15.7682 44.0015 15.2552 44.1369 14.7812C44.2775 14.3073 44.4832 13.8906 44.7541 13.5312C45.0301 13.1719 45.3713 12.8932 45.7775 12.6953C46.1838 12.4922 46.6525 12.3906 47.1838 12.3906C47.59 12.3906 47.9598 12.4505 48.2931 12.5703C48.6265 12.6849 48.9103 12.8698 49.1447 13.125C49.3843 13.375 49.5666 13.7031 49.6916 14.1094C49.8218 14.5156 49.8869 15.013 49.8869 15.6016V21H47.6291V15.6016C47.6291 15.2109 47.577 14.9141 47.4728 14.7109C47.3739 14.5026 47.228 14.3594 47.0353 14.2812C46.8478 14.1979 46.6239 14.1562 46.3634 14.1562C46.0926 14.1562 45.8556 14.2109 45.6525 14.3203C45.4494 14.4245 45.2801 14.5703 45.1447 14.7578C45.0093 14.9453 44.9077 15.1641 44.84 15.4141C44.7723 15.6589 44.7384 15.9271 44.7384 16.2188ZM56.3516 19.0938V15.3281C56.3516 15.0573 56.3073 14.8255 56.2188 14.6328C56.1302 14.4349 55.9922 14.2812 55.8047 14.1719C55.6224 14.0625 55.3854 14.0078 55.0938 14.0078C54.8438 14.0078 54.6276 14.0521 54.4453 14.1406C54.263 14.224 54.1224 14.3464 54.0234 14.5078C53.9245 14.6641 53.875 14.849 53.875 15.0625H51.625C51.625 14.7031 51.7083 14.362 51.875 14.0391C52.0417 13.7161 52.2839 13.4323 52.6016 13.1875C52.9193 12.9375 53.2969 12.7422 53.7344 12.6016C54.1771 12.4609 54.6719 12.3906 55.2188 12.3906C55.875 12.3906 56.4583 12.5 56.9688 12.7188C57.4792 12.9375 57.8802 13.2656 58.1719 13.7031C58.4688 14.1406 58.6172 14.6875 58.6172 15.3438V18.9609C58.6172 19.4245 58.6458 19.8047 58.7031 20.1016C58.7604 20.3932 58.8438 20.6484 58.9531 20.8672V21H56.6797C56.5703 20.7708 56.487 20.4844 56.4297 20.1406C56.3776 19.7917 56.3516 19.4427 56.3516 19.0938ZM56.6484 15.8516L56.6641 17.125H55.4062C55.1094 17.125 54.8516 17.1589 54.6328 17.2266C54.4141 17.2943 54.2344 17.3906 54.0938 17.5156C53.9531 17.6354 53.849 17.776 53.7812 17.9375C53.7188 18.099 53.6875 18.276 53.6875 18.4688C53.6875 18.6615 53.7318 18.8359 53.8203 18.9922C53.9089 19.1432 54.0365 19.263 54.2031 19.3516C54.3698 19.4349 54.5651 19.4766 54.7891 19.4766C55.1276 19.4766 55.4219 19.4089 55.6719 19.2734C55.9219 19.138 56.1146 18.9714 56.25 18.7734C56.3906 18.5755 56.4635 18.388 56.4688 18.2109L57.0625 19.1641C56.9792 19.3776 56.8646 19.599 56.7188 19.8281C56.5781 20.0573 56.3984 20.2734 56.1797 20.4766C55.9609 20.6745 55.6979 20.8385 55.3906 20.9688C55.0833 21.0938 54.7188 21.1562 54.2969 21.1562C53.7604 21.1562 53.2734 21.0495 52.8359 20.8359C52.4036 20.6172 52.0599 20.3177 51.8047 19.9375C51.5547 19.5521 51.4297 19.1146 51.4297 18.625C51.4297 18.1823 51.513 17.7891 51.6797 17.4453C51.8464 17.1016 52.0911 16.8125 52.4141 16.5781C52.7422 16.3385 53.151 16.1589 53.6406 16.0391C54.1302 15.9141 54.6979 15.8516 55.3438 15.8516H56.6484ZM62.8866 12.5469V21H60.6287V12.5469H62.8866ZM60.4881 10.3438C60.4881 10.0156 60.6027 9.74479 60.8319 9.53125C61.061 9.31771 61.3683 9.21094 61.7537 9.21094C62.134 9.21094 62.4386 9.31771 62.6678 9.53125C62.9022 9.74479 63.0194 10.0156 63.0194 10.3438C63.0194 10.6719 62.9022 10.9427 62.6678 11.1562C62.4386 11.3698 62.134 11.4766 61.7537 11.4766C61.3683 11.4766 61.061 11.3698 60.8319 11.1562C60.6027 10.9427 60.4881 10.6719 60.4881 10.3438ZM67.2809 9V21H65.0231V9H67.2809Z" fill="white"/>
</g>
</g>
<defs>
<filter id="filter0_i_315_251" x="0" y="0" width="95" height="33" filterUnits="userSpaceOnUse" color-interpolation-filters="sRGB">
<feFlood flood-opacity="0" result="BackgroundImageFix"/>
<feBlend mode="normal" in="SourceGraphic" in2="BackgroundImageFix" result="shape"/>
<feColorMatrix in="SourceAlpha" type="matrix" values="0 0 0 0 0 0 0 0 0 0 0 0 0 0 0 0 0 0 127 0" result="hardAlpha"/>
<feOffset dy="2"/>
<feGaussianBlur stdDeviation="1"/>
<feComposite in2="hardAlpha" operator="arithmetic" k2="-1" k3="1"/>
<feColorMatrix type="matrix" values="0 0 0 0 0 0 0 0 0 0 0 0 0 0 0 0 0 0 0.1 0"/>
<feBlend mode="normal" in2="shape" result="effect1_innerShadow_315_251"/>
</filter>
<filter id="filter1_i_315_251" x="0" y="0" width="95" height="33" filterUnits="userSpaceOnUse" color-interpolation-filters="sRGB">
<feFlood flood-opacity="0" result="BackgroundImageFix"/>
<feBlend mode="normal" in="SourceGraphic" in2="BackgroundImageFix" result="shape"/>
<feColorMatrix in="SourceAlpha" type="matrix" values="0 0 0 0 0 0 0 0 0 0 0 0 0 0 0 0 0 0 127 0" result="hardAlpha"/>
<feOffset dy="2"/>
<feGaussianBlur stdDeviation="1"/>
<feComposite in2="hardAlpha" operator="arithmetic" k2="-1" k3="1"/>
<feColorMatrix type="matrix" values="0 0 0 0 0 0 0 0 0 0 0 0 0 0 0 0 0 0 0.1 0"/>
<feBlend mode="normal" in2="shape" result="effect1_innerShadow_315_251"/>
</filter>
</defs>
</svg>
