<svg width="40" height="41" viewBox="0 0 40 41" fill="none" xmlns="http://www.w3.org/2000/svg">
<g clip-path="url(#clip0_50_159)">
<path d="M20 39.3108C30.6039 39.3108 39.2001 30.7146 39.2001 20.1108C39.2001 9.5069 30.6039 0.910767 20 0.910767C9.39618 0.910767 0.800049 9.5069 0.800049 20.1108C0.800049 30.7146 9.39618 39.3108 20 39.3108Z" fill="#EA4C89"/>
<path fill-rule="evenodd" clip-rule="evenodd" d="M20 0.110718C8.9588 0.110718 0 9.06952 0 20.1107C0 31.1519 8.9588 40.1107 20 40.1107C31.0195 40.1107 40 31.1519 40 20.1107C40 9.06952 31.0195 0.110718 20 0.110718ZM33.2104 9.3298C35.5965 12.2365 37.0282 15.9459 37.0716 19.9589C36.5076 19.8504 30.8677 18.7008 25.1844 19.4166C25.0542 19.1346 24.9458 18.8309 24.8156 18.5272C24.4686 17.7029 24.0781 16.8569 23.6876 16.0543C29.9783 13.4947 32.8416 9.80704 33.2104 9.3298ZM20 3.06083C24.3384 3.06083 28.308 4.68772 31.3232 7.35584C31.0195 7.78968 28.4382 11.2387 22.3644 13.5164C19.5662 8.37536 16.4642 4.16712 15.987 3.51636C17.2668 3.21267 18.6117 3.06083 20 3.06083ZM12.7332 4.66604C13.1887 5.2734 16.2256 9.50336 19.0672 14.5359C11.0846 16.6617 4.03472 16.6183 3.27549 16.6183C4.38176 11.3255 7.96096 6.922 12.7332 4.66604ZM2.90672 20.1324C2.90672 19.9589 2.90672 19.7854 2.90672 19.6118C3.64425 19.6335 11.9306 19.742 20.4555 17.1823C20.9544 18.1368 21.41 19.1129 21.8438 20.089C21.6269 20.1541 21.3883 20.2192 21.1714 20.2842C12.3644 23.1259 7.67896 30.8916 7.28852 31.5424C4.577 28.5272 2.90672 24.5142 2.90672 20.1324ZM20 37.204C16.0521 37.204 12.4078 35.8591 9.52276 33.6031C9.82648 32.9741 13.2972 26.2929 22.9284 22.9307C22.9718 22.909 22.9935 22.909 23.0369 22.8873C25.4447 29.1129 26.4208 34.3406 26.6811 35.8374C24.6204 36.7268 22.3644 37.204 20 37.204ZM29.5228 34.2756C29.3492 33.2344 28.4382 28.2452 26.2039 22.1064C31.5618 21.2604 36.2473 22.6487 36.833 22.8439C36.0954 27.5944 33.3622 31.6942 29.5228 34.2756Z" fill="#C32361"/>
</g>
<defs>
<clipPath id="clip0_50_159">
<rect width="40" height="40" fill="white" transform="translate(0 0.110718)"/>
</clipPath>
</defs>
</svg>
