<svg width="46" height="30" viewBox="0 0 46 30" fill="none" xmlns="http://www.w3.org/2000/svg">
<path d="M35.3774 12.1875C35.3774 9.94974 34.0356 7.80362 31.6471 6.22129C29.2587 4.63895 26.0193 3.75 22.6415 3.75C19.2638 3.75 16.0244 4.63895 13.6359 6.22129C11.2475 7.80362 9.90569 9.94974 9.90569 12.1875C9.90569 15.6488 14.0859 20.16 22.6415 25.5637C31.1972 20.16 35.3774 15.6488 35.3774 12.1875ZM22.6415 28.125C12.2632 21.8756 7.0755 16.5619 7.0755 12.1875C7.0755 9.45246 8.71549 6.82943 11.6347 4.89546C14.5539 2.96149 18.5132 1.875 22.6415 1.875C26.7699 1.875 30.7292 2.96149 33.6484 4.89546C36.5676 6.82943 38.2076 9.45246 38.2076 12.1875C38.2076 16.5619 33.0198 21.8756 22.6415 28.125Z" fill="black"/>
<path d="M22.6415 15C23.7674 15 24.8472 14.7037 25.6434 14.1762C26.4395 13.6488 26.8868 12.9334 26.8868 12.1875C26.8868 11.4416 26.4395 10.7262 25.6434 10.1988C24.8472 9.67132 23.7674 9.375 22.6415 9.375C21.5156 9.375 20.4358 9.67132 19.6396 10.1988C18.8435 10.7262 18.3962 11.4416 18.3962 12.1875C18.3962 12.9334 18.8435 13.6488 19.6396 14.1762C20.4358 14.7037 21.5156 15 22.6415 15ZM22.6415 16.875C20.765 16.875 18.9653 16.3811 17.6384 15.5021C16.3115 14.623 15.566 13.4307 15.566 12.1875C15.566 10.9443 16.3115 9.75201 17.6384 8.87294C18.9653 7.99386 20.765 7.5 22.6415 7.5C24.518 7.5 26.3177 7.99386 27.6446 8.87294C28.9715 9.75201 29.717 10.9443 29.717 12.1875C29.717 13.4307 28.9715 14.623 27.6446 15.5021C26.3177 16.3811 24.518 16.875 22.6415 16.875Z" fill="black"/>
</svg>
