<svg width="46" height="30" viewBox="0 0 46 30" fill="none" xmlns="http://www.w3.org/2000/svg">
<path d="M35.3773 12.1875C35.3773 9.94974 34.0355 7.80362 31.6471 6.22129C29.2586 4.63895 26.0192 3.75 22.6415 3.75C19.2637 3.75 16.0243 4.63895 13.6359 6.22129C11.2474 7.80362 9.90563 9.94974 9.90563 12.1875C9.90563 15.6488 14.0858 20.16 22.6415 25.5637C31.1971 20.16 35.3773 15.6488 35.3773 12.1875ZM22.6415 28.125C12.2632 21.8756 7.07544 16.5619 7.07544 12.1875C7.07544 9.45246 8.71543 6.82943 11.6346 4.89546C14.5538 2.96149 18.5131 1.875 22.6415 1.875C26.7698 1.875 30.7291 2.96149 33.6483 4.89546C36.5675 6.82943 38.2075 9.45246 38.2075 12.1875C38.2075 16.5619 33.0198 21.8756 22.6415 28.125Z" fill="black"/>
<path d="M22.6414 15C23.7673 15 24.8471 14.7037 25.6433 14.1762C26.4394 13.6488 26.8867 12.9334 26.8867 12.1875C26.8867 11.4416 26.4394 10.7262 25.6433 10.1988C24.8471 9.67132 23.7673 9.375 22.6414 9.375C21.5155 9.375 20.4357 9.67132 19.6395 10.1988C18.8434 10.7262 18.3961 11.4416 18.3961 12.1875C18.3961 12.9334 18.8434 13.6488 19.6395 14.1762C20.4357 14.7037 21.5155 15 22.6414 15ZM22.6414 16.875C20.7649 16.875 18.9652 16.3811 17.6383 15.5021C16.3114 14.623 15.5659 13.4307 15.5659 12.1875C15.5659 10.9443 16.3114 9.75201 17.6383 8.87294C18.9652 7.99386 20.7649 7.5 22.6414 7.5C24.5179 7.5 26.3176 7.99386 27.6445 8.87294C28.9714 9.75201 29.7169 10.9443 29.7169 12.1875C29.7169 13.4307 28.9714 14.623 27.6445 15.5021C26.3176 16.3811 24.5179 16.875 22.6414 16.875Z" fill="black"/>
</svg>
