<svg width="23" height="19" viewBox="0 0 23 19" fill="none" xmlns="http://www.w3.org/2000/svg">
<path fill-rule="evenodd" clip-rule="evenodd" d="M10.4366 3.39115C6.69002 3.39115 3.65279 5.7532 3.65279 8.66694C3.65279 11.5807 6.69002 13.9427 10.4366 13.9427C14.1833 13.9427 17.2205 11.5807 17.2205 8.66694C17.2205 5.7532 14.1833 3.39115 10.4366 3.39115ZM2.22461 8.66694C2.22461 5.13978 5.90126 2.28046 10.4366 2.28046C14.972 2.28046 18.6487 5.13978 18.6487 8.66694C18.6487 12.1941 14.972 15.0534 10.4366 15.0534C5.90126 15.0534 2.22461 12.1941 2.22461 8.66694Z" fill="#4D4D4D"/>
<path fill-rule="evenodd" clip-rule="evenodd" d="M15.2337 12.3977C15.5126 12.1808 15.9647 12.1808 16.2436 12.3977L20.5817 15.7715C20.8605 15.9883 20.8605 16.34 20.5817 16.5568C20.3028 16.7737 19.8507 16.7737 19.5718 16.5568L15.2337 13.1831C14.9548 12.9662 14.9548 12.6146 15.2337 12.3977Z" fill="#4D4D4D"/>
</svg>
