<svg width="32" height="32" viewBox="0 0 32 32" fill="none" xmlns="http://www.w3.org/2000/svg">
<path fill-rule="evenodd" clip-rule="evenodd" d="M4.15574 3.46964C4.4986 3.30999 4.87969 3.25083 5.2548 3.29901C5.62992 3.3472 5.98369 3.50075 6.27506 3.74187L6.27974 3.74574C9.42209 6.37835 12.6246 7.69261 15.0375 8.34892C16.2438 8.67704 17.2502 8.83993 17.9482 8.9207C18.2971 8.96106 18.5683 8.98085 18.7483 8.99054C18.8383 8.99539 18.9054 8.99771 18.948 8.99882C18.9692 8.99937 18.9844 8.99962 18.9931 8.99973L19.0008 8.99982L24 8.99979C25.5913 8.99979 27.1175 9.63193 28.2427 10.7572C29.3679 11.8824 30 13.4085 30 14.9998C30 16.5911 29.3679 18.1172 28.2427 19.2424C27.3064 20.1787 26.0927 20.7736 24.7947 20.947L23.3204 26.8665L23.3198 26.869C23.2416 27.1796 23.0899 27.4669 22.8775 27.7067C22.6651 27.9465 22.3982 28.1318 22.0993 28.2469C21.8004 28.3621 21.4782 28.4038 21.1598 28.3685C20.8423 28.3332 20.5378 28.2224 20.2718 28.0453L20.2698 28.044L18.9007 27.1354C18.6224 26.9536 18.3941 26.705 18.2368 26.4121C18.0793 26.119 17.9979 25.7911 18.0001 25.4585V21.073C17.983 21.0749 17.9657 21.0769 17.9482 21.0789C17.2501 21.1597 16.2438 21.3226 15.0375 21.6507C12.6246 22.307 9.42207 23.6212 6.27973 26.2538L6.27507 26.2577C5.9837 26.4988 5.62993 26.6524 5.2548 26.7006C4.87968 26.7488 4.49859 26.6896 4.15574 26.5299C3.81289 26.3703 3.52234 26.1167 3.31778 25.7986C3.11323 25.4805 3.00306 25.1109 3.00006 24.7327L3 24.7248L3.00003 5.26687C3.00303 4.88868 3.11323 4.51909 3.31778 4.20099C3.52234 3.88288 3.81289 3.62929 4.15574 3.46964ZM18.0001 19.0619C17.9114 19.0707 17.8174 19.0807 17.7183 19.0922C16.9343 19.1829 15.8281 19.363 14.5126 19.7208C11.883 20.436 8.40618 21.8645 5.00003 24.7168V5.28277C8.40618 8.13503 11.883 9.56356 14.5126 10.2788C15.8281 10.6366 16.9343 10.8167 17.7183 10.9074C17.8174 10.9189 17.9114 10.929 18.0001 10.9378V19.0619ZM20.0001 10.9998V18.9998L24.0001 18.9998C25.0609 18.9998 26.0783 18.5784 26.8285 17.8282C27.5786 17.0781 28 16.0607 28 14.9998C28 13.9389 27.5786 12.9215 26.8285 12.1714C26.0783 11.4212 25.0609 10.9998 24 10.9998L20.0001 10.9998ZM20.0001 20.9998L22.7205 20.9998L21.3803 26.3806L21.378 26.3791L20.003 25.4666L20.0001 25.4646V20.9998Z" fill="black"/>
</svg>
