<svg width="32" height="32" viewBox="0 0 32 32" fill="none" xmlns="http://www.w3.org/2000/svg">
<path fill-rule="evenodd" clip-rule="evenodd" d="M14.4808 4.67241C15.3833 3.71353 16.9072 3.71352 17.8097 4.67241L28.041 15.5432C28.4401 15.9672 28.6623 16.5275 28.6623 17.1097V27.3866C28.6623 28.649 27.6389 29.6724 26.3766 29.6724H20.6804C19.418 29.6724 18.3947 28.649 18.3947 27.3866V21.753L18.3946 21.7498C18.3943 21.7409 18.3934 21.7222 18.3914 21.6951C18.3872 21.6405 18.3783 21.5545 18.3593 21.448C18.3206 21.23 18.2451 20.955 18.1051 20.6926C17.9683 20.436 17.7769 20.2033 17.5007 20.0307C17.2282 19.8604 16.8079 19.7075 16.1453 19.7075C14.5154 19.7075 13.9725 20.3194 13.7481 20.7167C13.6111 20.9593 13.5453 21.2126 13.5159 21.4136C13.5015 21.5117 13.4969 21.5904 13.4955 21.639C13.4949 21.6624 13.4951 21.678 13.4952 21.6847L13.4967 21.7091V27.3866C13.4967 28.649 12.4734 29.6724 11.211 29.6724H5.71443C4.45206 29.6724 3.42871 28.649 3.42871 27.3866V17.3217C3.42871 16.7395 3.65091 16.1792 4.04997 15.7552L14.4808 4.67241ZM19.5376 21.7449H20.6804V27.3866H26.3766V17.1097L16.1453 6.23896L5.71442 17.3217L5.71443 27.3866L11.211 27.3866V21.7694C11.2106 21.7587 11.2103 21.7466 11.21 21.7331C11.2092 21.6929 11.209 21.6405 11.2107 21.5775C11.214 21.4522 11.225 21.2824 11.2543 21.0824C11.3121 20.6871 11.4458 20.1453 11.7578 19.5928C12.4314 18.4 13.7842 17.4218 16.1453 17.4218C17.1788 17.4218 18.0306 17.6664 18.7121 18.0924C19.39 18.5161 19.8347 19.0784 20.1219 19.617C20.406 20.1496 20.5425 20.6697 20.6098 21.048C20.6438 21.2396 20.6614 21.4021 20.6705 21.5214C20.675 21.5813 20.6775 21.6309 20.6789 21.6686C20.6795 21.6874 20.6799 21.7034 20.6801 21.7161L20.6804 21.7329L20.6804 21.7395L20.6804 21.7424L20.6804 21.7437C20.6804 21.7437 20.6804 21.7449 19.5376 21.7449Z" fill="black"/>
</svg>
