<svg width="32" height="32" viewBox="0 0 32 32" fill="none" xmlns="http://www.w3.org/2000/svg">
<path fill-rule="evenodd" clip-rule="evenodd" d="M14.4806 4.67241C15.383 3.71353 16.907 3.71352 17.8095 4.67241L28.0408 15.5432C28.4398 15.9672 28.662 16.5275 28.662 17.1097V27.3866C28.662 28.649 27.6387 29.6723 26.3763 29.6723H20.6802C19.4178 29.6723 18.3945 28.649 18.3945 27.3866V21.753L18.3943 21.7498C18.394 21.7409 18.3932 21.7222 18.3911 21.6951C18.387 21.6405 18.378 21.5545 18.3591 21.448C18.3203 21.23 18.2448 20.955 18.1049 20.6926C17.968 20.436 17.7767 20.2033 17.5005 20.0307C17.228 19.8604 16.8076 19.7075 16.145 19.7075C14.5151 19.7075 13.9722 20.3194 13.7479 20.7167C13.6109 20.9593 13.545 21.2126 13.5156 21.4136C13.5012 21.5117 13.4966 21.5904 13.4953 21.639C13.4947 21.6624 13.4948 21.678 13.495 21.6847L13.4965 21.7091V27.3866C13.4965 28.649 12.4731 29.6723 11.2108 29.6723H5.71418C4.45182 29.6723 3.42847 28.649 3.42847 27.3866V17.3217C3.42847 16.7395 3.65067 16.1792 4.04972 15.7552L14.4806 4.67241ZM19.5373 21.7449H20.6802V27.3866H26.3763V17.1097L16.145 6.23896L5.71418 17.3217L5.71418 27.3866L11.2108 27.3866V21.7694C11.2104 21.7587 11.21 21.7466 11.2098 21.7331C11.2089 21.6929 11.2087 21.6405 11.2104 21.5775C11.2138 21.4522 11.2247 21.2824 11.254 21.0824C11.3119 20.6871 11.4456 20.1453 11.7576 19.5928C12.4312 18.4 13.784 17.4218 16.145 17.4218C17.1786 17.4218 18.0303 17.6664 18.7119 18.0924C19.3898 18.5161 19.8345 19.0784 20.1217 19.617C20.4057 20.1496 20.5423 20.6697 20.6095 21.048C20.6436 21.2396 20.6611 21.4021 20.6702 21.5214C20.6748 21.5813 20.6773 21.6309 20.6786 21.6686C20.6793 21.6874 20.6797 21.7034 20.6799 21.7161L20.6801 21.7329L20.6802 21.7395L20.6802 21.7424V21.7437C20.6802 21.7437 20.6802 21.7449 19.5373 21.7449Z" fill="black"/>
</svg>
