<svg width="40" height="41" viewBox="0 0 40 41" fill="none" xmlns="http://www.w3.org/2000/svg">
<g clip-path="url(#clip0_50_234)">
<path d="M20 40.1107C31.0457 40.1107 40 31.1564 40 20.1107C40 9.06502 31.0457 0.110718 20 0.110718C8.9543 0.110718 0 9.06502 0 20.1107C0 31.1564 8.9543 40.1107 20 40.1107Z" fill="#FF4500"/>
<path d="M33.3402 20.1107C33.3196 19.5478 33.1366 19.0028 32.8133 18.5415C32.4899 18.0801 32.0401 17.7222 31.5179 17.5108C30.9957 17.2994 30.4236 17.2436 29.8704 17.35C29.3172 17.4564 28.8066 17.7206 28.4002 18.1107C26.125 16.5641 23.4506 15.7097 20.7002 15.6507L22.0002 9.41071L26.2802 10.3107C26.331 10.7837 26.5488 11.223 26.8945 11.5499C27.2401 11.8767 27.6909 12.0697 28.1659 12.0942C28.641 12.1186 29.1092 11.9729 29.4866 11.6832C29.8639 11.3936 30.1256 10.9789 30.2248 10.5137C30.3239 10.0484 30.254 9.56306 30.0275 9.14473C29.8011 8.72639 29.433 8.40246 28.9892 8.23109C28.5455 8.05972 28.0551 8.05212 27.6063 8.20967C27.1575 8.36722 26.7795 8.67959 26.5402 9.09071L21.6402 8.11071C21.56 8.09313 21.4772 8.09163 21.3965 8.1063C21.3158 8.12097 21.2387 8.15151 21.1699 8.19616C21.1011 8.24081 21.0418 8.29867 20.9955 8.3664C20.9492 8.43413 20.9168 8.51037 20.9002 8.59071L19.4202 15.5307C16.6359 15.5727 13.9247 16.4278 11.6202 17.9907C11.3119 17.7006 10.9441 17.481 10.5425 17.3472C10.1409 17.2133 9.71498 17.1684 9.29428 17.2155C8.87357 17.2626 8.46813 17.4006 8.10607 17.62C7.74401 17.8394 7.43397 18.1349 7.19745 18.486C6.96094 18.8371 6.80359 19.2354 6.73632 19.6534C6.66905 20.0713 6.69346 20.4989 6.80787 20.9065C6.92228 21.3141 7.12394 21.6919 7.39889 22.0138C7.67384 22.3357 8.01549 22.594 8.40017 22.7707C8.37765 23.0636 8.37765 23.3578 8.40017 23.6507C8.40017 28.1307 13.6202 31.7707 20.0602 31.7707C26.5002 31.7707 31.7202 28.1307 31.7202 23.6507C31.7427 23.3578 31.7427 23.0636 31.7202 22.7707C32.2137 22.5254 32.6277 22.1454 32.9144 21.6747C33.2011 21.204 33.3487 20.6618 33.3402 20.1107ZM13.3402 22.1107C13.3402 21.7152 13.4575 21.3285 13.6772 20.9996C13.897 20.6707 14.2094 20.4143 14.5748 20.263C14.9403 20.1116 15.3424 20.072 15.7303 20.1491C16.1183 20.2263 16.4747 20.4168 16.7544 20.6965C17.0341 20.9762 17.2246 21.3326 17.3017 21.7205C17.3789 22.1085 17.3393 22.5106 17.1879 22.8761C17.0366 23.2415 16.7802 23.5539 16.4513 23.7737C16.1224 23.9934 15.7357 24.1107 15.3402 24.1107C15.0775 24.1107 14.8175 24.059 14.5748 23.9585C14.3322 23.858 14.1117 23.7106 13.926 23.5249C13.7402 23.3392 13.5929 23.1187 13.4924 22.8761C13.3919 22.6334 13.3402 22.3734 13.3402 22.1107ZM24.9602 27.6107C23.5412 28.68 21.7954 29.2243 20.0202 29.1507C18.2449 29.2243 16.4991 28.68 15.0802 27.6107C14.9951 27.5071 14.9517 27.3755 14.9582 27.2416C14.9648 27.1077 15.021 26.9811 15.1157 26.8863C15.2105 26.7915 15.3372 26.7354 15.4711 26.7288C15.605 26.7222 15.7365 26.7657 15.8402 26.8507C17.0426 27.7327 18.5104 28.1773 20.0002 28.1107C21.4918 28.1918 22.9664 27.7614 24.1802 26.8907C24.2863 26.7873 24.4291 26.7302 24.5772 26.7321C24.6506 26.733 24.7231 26.7484 24.7905 26.7773C24.8579 26.8063 24.919 26.8482 24.9702 26.9007C25.0214 26.9532 25.0618 27.0153 25.089 27.0835C25.1162 27.1516 25.1297 27.2244 25.1288 27.2978C25.1279 27.3711 25.1125 27.4436 25.0836 27.511C25.0546 27.5784 25.0127 27.6395 24.9602 27.6907V27.6107ZM24.6002 24.1907C24.2046 24.1907 23.8179 24.0734 23.489 23.8537C23.1601 23.6339 22.9038 23.3215 22.7524 22.9561C22.601 22.5906 22.5614 22.1885 22.6386 21.8005C22.7158 21.4126 22.9062 21.0562 23.186 20.7765C23.4657 20.4968 23.822 20.3063 24.21 20.2291C24.5979 20.152 25.0001 20.1916 25.3655 20.343C25.731 20.4943 26.0433 20.7507 26.2631 21.0796C26.4829 21.4085 26.6002 21.7952 26.6002 22.1907C26.611 22.4617 26.5667 22.7321 26.4698 22.9854C26.3729 23.2387 26.2255 23.4696 26.0365 23.6642C25.8476 23.8588 25.621 24.0129 25.3707 24.1171C25.1203 24.2214 24.8514 24.2736 24.5802 24.2707L24.6002 24.1907Z" fill="white"/>
</g>
<defs>
<clipPath id="clip0_50_234">
<rect width="40" height="40" fill="white" transform="translate(0 0.110718)"/>
</clipPath>
</defs>
</svg>
