<svg width="40" height="41" viewBox="0 0 40 41" fill="none" xmlns="http://www.w3.org/2000/svg">
<g clip-path="url(#clip0_50_154)">
<path d="M20 40.1106C31.0457 40.1106 40 31.1563 40 20.1106C40 9.0649 31.0457 0.110596 20 0.110596C8.9543 0.110596 0 9.0649 0 20.1106C0 31.1563 8.9543 40.1106 20 40.1106Z" fill="#FF4500"/>
<path d="M33.3402 20.1106C33.3196 19.5476 33.1366 19.0026 32.8133 18.5413C32.4899 18.08 32.0401 17.7221 31.5179 17.5107C30.9957 17.2993 30.4236 17.2434 29.8704 17.3499C29.3172 17.4563 28.8066 17.7205 28.4002 18.1106C26.125 16.564 23.4506 15.7096 20.7002 15.6506L22.0002 9.41059L26.2802 10.3106C26.331 10.7836 26.5488 11.2229 26.8945 11.5498C27.2401 11.8766 27.6909 12.0696 28.1659 12.094C28.641 12.1185 29.1092 11.9728 29.4866 11.6831C29.8639 11.3935 30.1256 10.9788 30.2248 10.5135C30.3239 10.0483 30.254 9.56294 30.0275 9.1446C29.8011 8.72627 29.433 8.40234 28.9892 8.23097C28.5455 8.05959 28.0551 8.052 27.6063 8.20955C27.1575 8.3671 26.7795 8.67947 26.5402 9.09059L21.6402 8.11059C21.56 8.09301 21.4772 8.09151 21.3965 8.10618C21.3158 8.12085 21.2387 8.15139 21.1699 8.19604C21.1011 8.24068 21.0418 8.29855 20.9955 8.36628C20.9492 8.43401 20.9168 8.51025 20.9002 8.59059L19.4202 15.5306C16.6359 15.5726 13.9247 16.4276 11.6202 17.9906C11.3119 17.7005 10.9441 17.4809 10.5425 17.347C10.1409 17.2132 9.71498 17.1683 9.29428 17.2154C8.87357 17.2625 8.46813 17.4005 8.10607 17.6199C7.74401 17.8393 7.43397 18.1347 7.19745 18.4858C6.96094 18.8369 6.80359 19.2353 6.73632 19.6532C6.66905 20.0712 6.69346 20.4988 6.80787 20.9064C6.92228 21.314 7.12394 21.6918 7.39889 22.0137C7.67384 22.3356 8.01549 22.5939 8.40017 22.7706C8.37765 23.0635 8.37765 23.3577 8.40017 23.6506C8.40017 28.1306 13.6202 31.7706 20.0602 31.7706C26.5002 31.7706 31.7202 28.1306 31.7202 23.6506C31.7427 23.3577 31.7427 23.0635 31.7202 22.7706C32.2137 22.5253 32.6277 22.1453 32.9144 21.6746C33.2011 21.2039 33.3487 20.6617 33.3402 20.1106ZM13.3402 22.1106C13.3402 21.715 13.4575 21.3283 13.6772 20.9995C13.897 20.6706 14.2094 20.4142 14.5748 20.2628C14.9403 20.1115 15.3424 20.0719 15.7303 20.149C16.1183 20.2262 16.4747 20.4167 16.7544 20.6964C17.0341 20.9761 17.2246 21.3324 17.3017 21.7204C17.3789 22.1084 17.3393 22.5105 17.1879 22.876C17.0366 23.2414 16.7802 23.5538 16.4513 23.7735C16.1224 23.9933 15.7357 24.1106 15.3402 24.1106C15.0775 24.1106 14.8175 24.0589 14.5748 23.9584C14.3322 23.8578 14.1117 23.7105 13.926 23.5248C13.7402 23.3391 13.5929 23.1186 13.4924 22.876C13.3919 22.6333 13.3402 22.3732 13.3402 22.1106ZM24.9602 27.6106C23.5412 28.6799 21.7954 29.2241 20.0202 29.1506C18.2449 29.2241 16.4991 28.6799 15.0802 27.6106C14.9951 27.507 14.9517 27.3754 14.9582 27.2415C14.9648 27.1076 15.021 26.981 15.1157 26.8862C15.2105 26.7914 15.3372 26.7352 15.4711 26.7287C15.605 26.7221 15.7365 26.7655 15.8402 26.8506C17.0426 27.7326 18.5104 28.1772 20.0002 28.1106C21.4918 28.1917 22.9664 27.7613 24.1802 26.8906C24.2863 26.7872 24.4291 26.7301 24.5772 26.732C24.6506 26.7329 24.7231 26.7483 24.7905 26.7772C24.8579 26.8061 24.919 26.8481 24.9702 26.9006C25.0214 26.9531 25.0618 27.0152 25.089 27.0834C25.1162 27.1515 25.1297 27.2243 25.1288 27.2977C25.1279 27.371 25.1125 27.4435 25.0836 27.5109C25.0546 27.5783 25.0127 27.6394 24.9602 27.6906V27.6106ZM24.6002 24.1906C24.2046 24.1906 23.8179 24.0733 23.489 23.8535C23.1601 23.6338 22.9038 23.3214 22.7524 22.956C22.601 22.5905 22.5614 22.1884 22.6386 21.8004C22.7158 21.4124 22.9062 21.0561 23.186 20.7764C23.4657 20.4967 23.822 20.3062 24.21 20.229C24.5979 20.1519 25.0001 20.1915 25.3655 20.3428C25.731 20.4942 26.0433 20.7506 26.2631 21.0795C26.4829 21.4083 26.6002 21.795 26.6002 22.1906C26.611 22.4616 26.5667 22.732 26.4698 22.9853C26.3729 23.2386 26.2255 23.4695 26.0365 23.6641C25.8476 23.8586 25.621 24.0127 25.3707 24.117C25.1203 24.2213 24.8514 24.2735 24.5802 24.2706L24.6002 24.1906Z" fill="white"/>
</g>
<defs>
<clipPath id="clip0_50_154">
<rect width="40" height="40" fill="white" transform="translate(0 0.110596)"/>
</clipPath>
</defs>
</svg>
