<svg width="48" height="49" viewBox="0 0 48 49" fill="none" xmlns="http://www.w3.org/2000/svg">
<g clip-path="url(#clip0_50_162)">
<path d="M34.8134 13.2973C34.2934 12.7773 33.4534 12.7773 32.9334 13.2973L27.28 18.9507L21.6267 13.2973C21.1067 12.7773 20.2667 12.7773 19.7467 13.2973C19.2267 13.8173 19.2267 14.6573 19.7467 15.1773L25.4 20.8307L19.7467 26.484C19.2267 27.004 19.2267 27.844 19.7467 28.364C20.2534 28.8707 21.1334 28.8707 21.6267 28.364L27.28 22.7107L32.9334 28.364C33.1867 28.6173 33.52 28.7507 33.88 28.7507C34.24 28.7507 34.5734 28.6173 34.8267 28.364C35.3467 27.844 35.3467 27.004 34.8267 26.484L29.1734 20.8307L34.8267 15.1773C35.3334 14.6573 35.3334 13.8173 34.8134 13.2973Z" fill="black"/>
<path d="M13.1734 6.64403C9.40003 10.4174 7.32002 15.444 7.32002 20.7907C7.32002 25.644 9.08003 30.2974 12.28 33.9374L11.2934 34.924L10.3467 33.9774C9.84002 33.4707 8.96003 33.4707 8.46669 33.9774L1.86669 40.5774C1.10669 41.3374 0.693359 42.3374 0.693359 43.404C0.693359 44.4707 1.10669 45.484 1.86669 46.2307C2.62669 46.9907 3.62669 47.404 4.69336 47.404C5.76003 47.404 6.77336 46.9907 7.52003 46.2307L14.12 39.6307C14.64 39.1107 14.64 38.2707 14.12 37.7507L13.1734 36.804L14.16 35.8174C17.8134 39.0174 22.4534 40.7774 27.3067 40.7774C32.6534 40.7774 37.6667 38.6974 41.4534 34.924C45.2267 31.1507 47.3067 26.124 47.3067 20.7774C47.3067 15.4307 45.2267 10.4174 41.4534 6.6307C33.6534 -1.14263 20.9734 -1.14263 13.1734 6.64403ZM27.3067 38.124C22.68 38.124 18.32 36.324 15.0534 33.044C11.7867 29.764 9.97336 25.4174 9.97336 20.7907C9.97336 16.164 11.7734 11.804 15.0534 8.53737C18.32 5.2707 22.68 3.4707 27.3067 3.4707C31.9467 3.4707 36.2934 5.2707 39.56 8.53737C42.84 11.8174 44.64 16.164 44.64 20.7907C44.64 25.4174 42.84 29.7774 39.56 33.044C36.28 36.3107 31.9467 38.124 27.3067 38.124ZM3.74669 44.364C3.22669 43.844 3.22669 43.004 3.74669 42.484L9.40003 36.8307L11.28 38.724L5.62669 44.3774C5.13336 44.8574 4.24003 44.8574 3.74669 44.364Z" fill="black"/>
</g>
<defs>
<clipPath id="clip0_50_162">
<rect width="48" height="48" fill="white" transform="translate(0 0.110718)"/>
</clipPath>
</defs>
</svg>
