<svg width="17" height="12" viewBox="0 0 17 12" fill="none" xmlns="http://www.w3.org/2000/svg">
<g clip-path="url(#clip0_50_224)">
<path d="M8.62496 11.3723C6.88671 11.3722 5.15069 11.2785 3.43014 11.092C2.95829 11.0393 2.52145 10.8736 2.18415 10.6194C1.84686 10.3652 1.62699 10.0359 1.55703 9.68034C1.06172 7.08478 1.06172 4.44917 1.55703 1.85361C1.62699 1.498 1.84686 1.16878 2.18415 0.914583C2.52145 0.660383 2.95829 0.494682 3.43014 0.441957C6.87421 0.0689897 10.3713 0.0689897 13.8154 0.441957C14.2873 0.494682 14.7241 0.660383 15.0614 0.914583C15.3987 1.16878 15.6186 1.498 15.6885 1.85361C16.1838 4.44917 16.1838 7.08478 15.6885 9.68034C15.6186 10.0359 15.3987 10.3652 15.0614 10.6194C14.7241 10.8736 14.2873 11.0393 13.8154 11.092C12.0963 11.2783 10.3618 11.372 8.62496 11.3723Z" fill="#F8E71C"/>
<path d="M9.06266 3.16637L9.67974 4.59121C9.70621 4.66256 9.76378 4.7251 9.84317 4.76878C9.92256 4.81246 10.0192 4.83472 10.1174 4.83199H12.1087C12.2175 4.80857 12.3342 4.81787 12.4342 4.85793C12.5342 4.89799 12.6097 4.9657 12.6448 5.04683C12.6799 5.12796 12.672 5.21619 12.6226 5.29299C12.5732 5.36978 12.4863 5.42916 12.38 5.45865L10.7695 6.33929C10.6887 6.38044 10.6284 6.44077 10.5983 6.51068C10.5681 6.58059 10.5699 6.65609 10.6032 6.72518L11.2159 8.15002C11.2782 8.22102 11.3017 8.30744 11.2814 8.3912C11.2612 8.47496 11.1987 8.54956 11.1071 8.59941C11.0155 8.64926 10.9019 8.67048 10.7901 8.65865C10.6782 8.64682 10.5767 8.60284 10.5069 8.53592L8.89636 7.65528C8.81946 7.61008 8.72473 7.58554 8.62721 7.58554C8.52969 7.58554 8.43496 7.61008 8.35806 7.65528L6.74316 8.53592C6.67096 8.59704 6.57118 8.63576 6.46322 8.64454C6.35526 8.65333 6.24682 8.63155 6.15898 8.58344C6.07114 8.53533 6.01016 8.46432 5.9879 8.38423C5.96565 8.30413 5.9837 8.22065 6.03855 8.15002L6.65125 6.72518C6.68455 6.65609 6.68628 6.58059 6.65615 6.51068C6.62602 6.44077 6.56576 6.38044 6.48495 6.33929L4.87442 5.45865C4.76816 5.42916 4.6812 5.36978 4.63182 5.29299C4.58244 5.21619 4.57448 5.12796 4.6096 5.04683C4.64473 4.9657 4.72022 4.89799 4.8202 4.85793C4.92018 4.81787 5.03687 4.80857 5.14576 4.83199H7.13703C7.23526 4.83472 7.33185 4.81246 7.41124 4.76878C7.49063 4.7251 7.5482 4.66256 7.57468 4.59121L8.18738 3.16637C8.18738 3.0789 8.23349 2.99501 8.31556 2.93315C8.39763 2.8713 8.50895 2.83655 8.62502 2.83655C8.74109 2.83655 8.85241 2.8713 8.93448 2.93315C9.01655 2.99501 9.06266 3.0789 9.06266 3.16637Z" fill="black"/>
</g>
<defs>
<clipPath id="clip0_50_224">
<rect width="15.3" height="11.5307" fill="white" transform="translate(0.974976)"/>
</clipPath>
</defs>
</svg>
