<svg width="17" height="13" viewBox="0 0 17 13" fill="none" xmlns="http://www.w3.org/2000/svg">
<g clip-path="url(#clip0_50_144)">
<path d="M8.62496 12.263C6.88671 12.2628 5.15069 12.1691 3.43014 11.9826C2.95829 11.9299 2.52145 11.7642 2.18415 11.51C1.84686 11.2558 1.62699 10.9266 1.55703 10.571C1.06172 7.97541 1.06172 5.33979 1.55703 2.74423C1.62699 2.38863 1.84686 2.05941 2.18415 1.80521C2.52145 1.55101 2.95829 1.38531 3.43014 1.33258C6.87421 0.959615 10.3713 0.959615 13.8154 1.33258C14.2873 1.38531 14.7241 1.55101 15.0614 1.80521C15.3987 2.05941 15.6186 2.38863 15.6885 2.74423C16.1838 5.33979 16.1838 7.97541 15.6885 10.571C15.6186 10.9266 15.3987 11.2558 15.0614 11.51C14.7241 11.7642 14.2873 11.9299 13.8154 11.9826C12.0963 12.169 10.3618 12.2626 8.62496 12.263Z" fill="#F8E71C"/>
<path d="M9.06266 4.057L9.67974 5.48184C9.70621 5.55318 9.76378 5.61573 9.84317 5.65941C9.92256 5.70309 10.0192 5.72535 10.1174 5.72261H12.1087C12.2175 5.69919 12.3342 5.70849 12.4342 5.74856C12.5342 5.78862 12.6097 5.85633 12.6448 5.93746C12.6799 6.01858 12.672 6.10682 12.6226 6.18361C12.5732 6.26041 12.4863 6.31979 12.38 6.34928L10.7695 7.22991C10.6887 7.27107 10.6284 7.33139 10.5983 7.40131C10.5681 7.47122 10.5699 7.54671 10.6032 7.6158L11.2159 9.04065C11.2782 9.11165 11.3017 9.19807 11.2814 9.28182C11.2612 9.36558 11.1987 9.44019 11.1071 9.49003C11.0155 9.53988 10.9019 9.56111 10.7901 9.54927C10.6782 9.53744 10.5767 9.49346 10.5069 9.42654L8.89636 8.54591C8.81946 8.50071 8.72473 8.47616 8.62721 8.47616C8.52969 8.47616 8.43496 8.50071 8.35806 8.54591L6.74316 9.42654C6.67096 9.48767 6.57118 9.52639 6.46322 9.53517C6.35526 9.54395 6.24682 9.52217 6.15898 9.47406C6.07114 9.42595 6.01016 9.35495 5.9879 9.27485C5.96565 9.19475 5.9837 9.11128 6.03855 9.04065L6.65125 7.6158C6.68455 7.54671 6.68628 7.47122 6.65615 7.40131C6.62602 7.33139 6.56576 7.27107 6.48495 7.22991L4.87442 6.34928C4.76816 6.31979 4.6812 6.26041 4.63182 6.18361C4.58244 6.10682 4.57448 6.01858 4.6096 5.93746C4.64473 5.85633 4.72022 5.78862 4.8202 5.74856C4.92018 5.70849 5.03687 5.69919 5.14576 5.72261H7.13703C7.23526 5.72535 7.33185 5.70309 7.41124 5.65941C7.49063 5.61573 7.5482 5.55318 7.57468 5.48184L8.18738 4.057C8.18738 3.96952 8.23349 3.88563 8.31556 3.82378C8.39763 3.76192 8.50895 3.72717 8.62502 3.72717C8.74109 3.72717 8.85241 3.76192 8.93448 3.82378C9.01655 3.88563 9.06266 3.96952 9.06266 4.057Z" fill="black"/>
</g>
<defs>
<clipPath id="clip0_50_144">
<rect width="15.3" height="11.5307" fill="white" transform="translate(0.974976 0.890625)"/>
</clipPath>
</defs>
</svg>
