<svg width="16" height="12" viewBox="0 0 16 12" fill="none" xmlns="http://www.w3.org/2000/svg">
<g clip-path="url(#clip0_50_231)">
<path d="M8.08749 11.8137C6.34923 11.8136 4.61321 11.7199 2.89267 11.5334C2.42081 11.4807 1.98398 11.315 1.64668 11.0608C1.30938 10.8066 1.08951 10.4774 1.01955 10.1217C0.524244 7.52619 0.524244 4.89057 1.01955 2.29501C1.08951 1.93941 1.30938 1.61019 1.64668 1.35599C1.98398 1.10179 2.42081 0.936088 2.89267 0.883363C6.33673 0.510396 9.83387 0.510396 13.2779 0.883363C13.7498 0.936088 14.1866 1.10179 14.5239 1.35599C14.8612 1.61019 15.0811 1.93941 15.151 2.29501C15.6464 4.89057 15.6464 7.52619 15.151 10.1217C15.0811 10.4774 14.8612 10.8066 14.5239 11.0608C14.1866 11.315 13.7498 11.4807 13.2779 11.5334C11.5588 11.7197 9.82428 11.8134 8.08749 11.8137Z" fill="#F8E71C"/>
<path d="M8.52519 3.60778L9.14226 5.03262C9.16874 5.10396 9.22631 5.16651 9.3057 5.21019C9.38509 5.25387 9.48168 5.27613 9.57991 5.27339H11.5712C11.6801 5.24997 11.7968 5.25927 11.8967 5.29934C11.9967 5.3394 12.0722 5.40711 12.1073 5.48824C12.1425 5.56937 12.1345 5.6576 12.0851 5.73439C12.0357 5.81119 11.9488 5.87057 11.8425 5.90006L10.232 6.78069C10.1512 6.82185 10.0909 6.88217 10.0608 6.95209C10.0307 7.022 10.0324 7.0975 10.0657 7.16659L10.6784 8.59143C10.7407 8.66243 10.7642 8.74885 10.744 8.83261C10.7237 8.91636 10.6612 8.99097 10.5696 9.04081C10.4781 9.09066 10.3645 9.11189 10.2526 9.10006C10.1407 9.08822 10.0392 9.04424 9.96941 8.97732L8.35888 8.09669C8.28198 8.05149 8.18725 8.02694 8.08973 8.02694C7.99221 8.02694 7.89748 8.05149 7.82058 8.09669L6.20568 8.97732C6.13348 9.03845 6.03371 9.07717 5.92575 9.08595C5.81778 9.09473 5.70935 9.07295 5.6215 9.02484C5.53366 8.97673 5.47269 8.90573 5.45043 8.82563C5.42817 8.74553 5.44622 8.66206 5.50107 8.59143L6.11377 7.16659C6.14708 7.0975 6.1488 7.022 6.11867 6.95209C6.08854 6.88217 6.02829 6.82185 5.94747 6.78069L4.33694 5.90006C4.23068 5.87057 4.14373 5.81119 4.09435 5.73439C4.04496 5.6576 4.037 5.56937 4.07213 5.48824C4.10726 5.40711 4.18274 5.3394 4.28272 5.29934C4.3827 5.25927 4.49939 5.24997 4.60828 5.27339H6.59956C6.69779 5.27613 6.79438 5.25387 6.87377 5.21019C6.95316 5.16651 7.01073 5.10396 7.0372 5.03262L7.6499 3.60778C7.6499 3.5203 7.69601 3.43641 7.77808 3.37456C7.86016 3.3127 7.97147 3.27795 8.08754 3.27795C8.20361 3.27795 8.31493 3.3127 8.39701 3.37456C8.47908 3.43641 8.52519 3.5203 8.52519 3.60778Z" fill="black"/>
</g>
<defs>
<clipPath id="clip0_50_231">
<rect width="15.3" height="11.5307" fill="white" transform="translate(0.4375 0.441406)"/>
</clipPath>
</defs>
</svg>
