<svg width="36" height="37" viewBox="0 0 36 37" fill="none" xmlns="http://www.w3.org/2000/svg">
<g opacity="0.95">
<rect width="36" height="37" fill="black"/>
<path d="M23.565 19.5944C25.0356 18.4053 26.109 16.7746 26.6359 14.9293C27.1627 13.0839 27.1169 11.1157 26.5047 9.29836C25.8925 7.48105 24.7444 5.90503 23.2201 4.78958C21.6958 3.67413 19.8712 3.07471 18 3.07471C16.1288 3.07471 14.3042 3.67413 12.7799 4.78958C11.2556 5.90503 10.1075 7.48105 9.49531 9.29836C8.88312 11.1157 8.83726 13.0839 9.36414 14.9293C9.89101 16.7746 10.9644 18.4053 12.435 19.5944C9.91511 20.632 7.71643 22.353 6.07333 24.5739C4.43024 26.7948 3.40434 29.4323 3.105 32.2053C3.08333 32.4077 3.10067 32.6126 3.15603 32.8081C3.2114 33.0037 3.3037 33.1862 3.42766 33.3451C3.67802 33.666 4.04217 33.8715 4.44 33.9165C4.83782 33.9615 5.23673 33.8422 5.54898 33.5849C5.86123 33.3276 6.06123 32.9533 6.105 32.5444C6.43437 29.5308 7.83252 26.7475 10.0323 24.7263C12.2321 22.7052 15.0793 21.5879 18.03 21.5879C20.9806 21.5879 23.8279 22.7052 26.0277 24.7263C28.2275 26.7475 29.6256 29.5308 29.955 32.5444C29.9958 32.9232 30.1716 33.2731 30.4487 33.5265C30.7257 33.7799 31.0842 33.9188 31.455 33.9165H31.62C32.0132 33.87 32.3726 33.6657 32.6198 33.348C32.8671 33.0304 32.9822 32.6252 32.94 32.2207C32.6392 29.4398 31.6078 26.7955 29.9563 24.5712C28.3047 22.347 26.0954 20.6265 23.565 19.5944ZM18 18.4998C16.8133 18.4998 15.6533 18.1382 14.6666 17.4606C13.6799 16.783 12.9108 15.8199 12.4567 14.6931C12.0026 13.5663 11.8838 12.3263 12.1153 11.1301C12.3468 9.93391 12.9182 8.83511 13.7574 7.97269C14.5965 7.11026 15.6656 6.52295 16.8295 6.285C17.9933 6.04706 19.1997 6.16918 20.2961 6.63592C21.3925 7.10266 22.3295 7.89306 22.9888 8.90716C23.6481 9.92127 24 11.1135 24 12.3332C24 13.9687 23.3679 15.5372 22.2426 16.6937C21.1174 17.8501 19.5913 18.4998 18 18.4998Z" fill="white" fill-opacity="0.95"/>
</g>
</svg>
