<svg width="95" height="33" viewBox="0 0 95 33" fill="none" xmlns="http://www.w3.org/2000/svg">
<g filter="url(#filter0_i_315_174)">
<rect width="95" height="31" rx="15.5" fill="#F0F0F0"/>
</g>
<mask id="mask0_315_174" style="mask-type:alpha" maskUnits="userSpaceOnUse" x="0" y="0" width="95" height="31">
<rect width="95" height="31" rx="15.5" fill="#F0F0F0"/>
</mask>
<g mask="url(#mask0_315_174)">
<path d="M17.1413 9.625V21H14.8053V9.625H17.1413ZM21.5591 14.3516V21H19.3091V12.5469H21.4184L21.5591 14.3516ZM21.2309 16.4766H20.6216C20.6216 15.8516 20.7023 15.2891 20.8638 14.7891C21.0252 14.2839 21.2518 13.8542 21.5434 13.5C21.8351 13.1406 22.1815 12.8672 22.5825 12.6797C22.9888 12.487 23.4419 12.3906 23.9419 12.3906C24.3377 12.3906 24.6997 12.4479 25.0278 12.5625C25.3559 12.6771 25.6372 12.8594 25.8716 13.1094C26.1111 13.3594 26.2934 13.6901 26.4184 14.1016C26.5486 14.513 26.6138 15.0156 26.6138 15.6094V21H24.3481V15.6016C24.3481 15.2266 24.296 14.9349 24.1919 14.7266C24.0877 14.5182 23.9341 14.3724 23.7309 14.2891C23.533 14.2005 23.2882 14.1562 22.9966 14.1562C22.6945 14.1562 22.4315 14.2161 22.2075 14.3359C21.9888 14.4557 21.8065 14.6224 21.6606 14.8359C21.52 15.0443 21.4132 15.2891 21.3403 15.5703C21.2674 15.8516 21.2309 16.1536 21.2309 16.4766ZM32.6253 12.5469V14.1406H27.7034V12.5469H32.6253ZM28.9222 10.4609H31.1722V18.4531C31.1722 18.6979 31.2034 18.8854 31.2659 19.0156C31.3336 19.1458 31.4326 19.237 31.5628 19.2891C31.693 19.3359 31.8571 19.3594 32.055 19.3594C32.1956 19.3594 32.3206 19.3542 32.43 19.3438C32.5446 19.3281 32.6409 19.3125 32.7191 19.2969L32.7269 20.9531C32.5342 21.0156 32.3258 21.0651 32.1019 21.1016C31.8779 21.138 31.6305 21.1562 31.3597 21.1562C30.8649 21.1562 30.4326 21.0755 30.0628 20.9141C29.6982 20.7474 29.417 20.4818 29.2191 20.1172C29.0211 19.7526 28.9222 19.2734 28.9222 18.6797V10.4609ZM37.9572 21.1562C37.3009 21.1562 36.7124 21.0521 36.1916 20.8438C35.6707 20.6302 35.228 20.3359 34.8634 19.9609C34.5041 19.5859 34.228 19.151 34.0353 18.6562C33.8426 18.1562 33.7463 17.625 33.7463 17.0625V16.75C33.7463 16.1094 33.8374 15.5234 34.0197 14.9922C34.202 14.4609 34.4624 14 34.8009 13.6094C35.1447 13.2188 35.5614 12.9193 36.0509 12.7109C36.5405 12.4974 37.0926 12.3906 37.7072 12.3906C38.3061 12.3906 38.8374 12.4896 39.3009 12.6875C39.7645 12.8854 40.1525 13.1667 40.465 13.5312C40.7827 13.8958 41.0223 14.3333 41.1838 14.8438C41.3452 15.349 41.4259 15.9115 41.4259 16.5312V17.4688H34.7072V15.9688H39.215V15.7969C39.215 15.4844 39.1577 15.2057 39.0431 14.9609C38.9338 14.7109 38.7671 14.513 38.5431 14.3672C38.3192 14.2214 38.0327 14.1484 37.6838 14.1484C37.3869 14.1484 37.1317 14.2135 36.9181 14.3438C36.7046 14.474 36.5301 14.6562 36.3947 14.8906C36.2645 15.125 36.1655 15.401 36.0978 15.7188C36.0353 16.0312 36.0041 16.375 36.0041 16.75V17.0625C36.0041 17.401 36.0509 17.7135 36.1447 18C36.2436 18.2865 36.3817 18.5339 36.5588 18.7422C36.741 18.9505 36.9598 19.112 37.215 19.2266C37.4754 19.3411 37.7697 19.3984 38.0978 19.3984C38.5041 19.3984 38.8817 19.3203 39.2306 19.1641C39.5848 19.0026 39.8895 18.7604 40.1447 18.4375L41.2384 19.625C41.0614 19.8802 40.8192 20.125 40.5119 20.3594C40.2098 20.5938 39.8452 20.7865 39.4181 20.9375C38.991 21.0833 38.5041 21.1562 37.9572 21.1562ZM45.1172 14.3906V21H42.8672V12.5469H44.9844L45.1172 14.3906ZM47.6641 12.4922L47.625 14.5781C47.5156 14.5625 47.3828 14.5495 47.2266 14.5391C47.0755 14.5234 46.9375 14.5156 46.8125 14.5156C46.4948 14.5156 46.2188 14.5573 45.9844 14.6406C45.7552 14.7188 45.5625 14.8359 45.4062 14.9922C45.2552 15.1484 45.1406 15.3385 45.0625 15.5625C44.9896 15.7865 44.9479 16.0417 44.9375 16.3281L44.4844 16.1875C44.4844 15.6406 44.5391 15.138 44.6484 14.6797C44.7578 14.2161 44.9167 13.8125 45.125 13.4688C45.3385 13.125 45.599 12.8594 45.9062 12.6719C46.2135 12.4844 46.5651 12.3906 46.9609 12.3906C47.0859 12.3906 47.2135 12.401 47.3438 12.4219C47.474 12.4375 47.5807 12.4609 47.6641 12.4922ZM51.9022 19.3594L53.7772 12.5469H56.1287L53.2772 21H51.8553L51.9022 19.3594ZM50.6131 12.5469L52.4959 19.3672L52.535 21H51.1053L48.2537 12.5469H50.6131ZM59.6716 12.5469V21H57.4137V12.5469H59.6716ZM57.2731 10.3438C57.2731 10.0156 57.3877 9.74479 57.6169 9.53125C57.846 9.31771 58.1533 9.21094 58.5387 9.21094C58.919 9.21094 59.2236 9.31771 59.4528 9.53125C59.6872 9.74479 59.8044 10.0156 59.8044 10.3438C59.8044 10.6719 59.6872 10.9427 59.4528 11.1562C59.2236 11.3698 58.919 11.4766 58.5387 11.4766C58.1533 11.4766 57.846 11.3698 57.6169 11.1562C57.3877 10.9427 57.2731 10.6719 57.2731 10.3438ZM65.5816 21.1562C64.9253 21.1562 64.3368 21.0521 63.8159 20.8438C63.2951 20.6302 62.8524 20.3359 62.4878 19.9609C62.1284 19.5859 61.8524 19.151 61.6597 18.6562C61.467 18.1562 61.3706 17.625 61.3706 17.0625V16.75C61.3706 16.1094 61.4618 15.5234 61.6441 14.9922C61.8264 14.4609 62.0868 14 62.4253 13.6094C62.7691 13.2188 63.1857 12.9193 63.6753 12.7109C64.1649 12.4974 64.717 12.3906 65.3316 12.3906C65.9305 12.3906 66.4618 12.4896 66.9253 12.6875C67.3889 12.8854 67.7769 13.1667 68.0894 13.5312C68.4071 13.8958 68.6467 14.3333 68.8081 14.8438C68.9696 15.349 69.0503 15.9115 69.0503 16.5312V17.4688H62.3316V15.9688H66.8394V15.7969C66.8394 15.4844 66.7821 15.2057 66.6675 14.9609C66.5581 14.7109 66.3915 14.513 66.1675 14.3672C65.9435 14.2214 65.6571 14.1484 65.3081 14.1484C65.0112 14.1484 64.756 14.2135 64.5425 14.3438C64.329 14.474 64.1545 14.6562 64.0191 14.8906C63.8889 15.125 63.7899 15.401 63.7222 15.7188C63.6597 16.0312 63.6284 16.375 63.6284 16.75V17.0625C63.6284 17.401 63.6753 17.7135 63.7691 18C63.868 18.2865 64.006 18.5339 64.1831 18.7422C64.3654 18.9505 64.5842 19.112 64.8394 19.2266C65.0998 19.3411 65.3941 19.3984 65.7222 19.3984C66.1284 19.3984 66.506 19.3203 66.855 19.1641C67.2092 19.0026 67.5139 18.7604 67.7691 18.4375L68.8628 19.625C68.6857 19.8802 68.4435 20.125 68.1362 20.3594C67.8342 20.5938 67.4696 20.7865 67.0425 20.9375C66.6154 21.0833 66.1284 21.1562 65.5816 21.1562ZM72.9056 18.8125L74.6634 12.5469H76.0931L75.6322 15.0078L73.8744 21H72.6791L72.9056 18.8125ZM72.015 12.5469L73.2728 18.8047L73.39 21H71.9837L69.8431 12.5469H72.015ZM77.7025 18.7031L78.9291 12.5469H81.1087L78.9681 21H77.5697L77.7025 18.7031ZM76.2884 12.5469L78.0384 18.7656L78.2806 21H77.0775L75.3197 15.0156L74.8744 12.5469H76.2884Z" fill="#8C8C8C"/>
<mask id="mask1_315_174" style="mask-type:alpha" maskUnits="userSpaceOnUse" x="0" y="0" width="95" height="31">
<rect width="95" height="31" rx="15.5" fill="#20A2A2"/>
</mask>
<g mask="url(#mask1_315_174)">
<g filter="url(#filter1_i_315_174)">
<rect width="95" height="31" rx="15.5" fill="#236AF2"/>
</g>
<path d="M17.0866 19.1719V21H11.36V19.1719H17.0866ZM12.1178 9.625V21H9.77406V9.625H12.1178ZM23.0122 19.0938V15.3281C23.0122 15.0573 22.9679 14.8255 22.8794 14.6328C22.7908 14.4349 22.6528 14.2812 22.4653 14.1719C22.283 14.0625 22.046 14.0078 21.7544 14.0078C21.5044 14.0078 21.2882 14.0521 21.1059 14.1406C20.9236 14.224 20.783 14.3464 20.6841 14.5078C20.5851 14.6641 20.5356 14.849 20.5356 15.0625H18.2856C18.2856 14.7031 18.369 14.362 18.5356 14.0391C18.7023 13.7161 18.9445 13.4323 19.2622 13.1875C19.5799 12.9375 19.9575 12.7422 20.395 12.6016C20.8377 12.4609 21.3325 12.3906 21.8794 12.3906C22.5356 12.3906 23.119 12.5 23.6294 12.7188C24.1398 12.9375 24.5408 13.2656 24.8325 13.7031C25.1294 14.1406 25.2778 14.6875 25.2778 15.3438V18.9609C25.2778 19.4245 25.3065 19.8047 25.3638 20.1016C25.421 20.3932 25.5044 20.6484 25.6138 20.8672V21H23.3403C23.2309 20.7708 23.1476 20.4844 23.0903 20.1406C23.0382 19.7917 23.0122 19.4427 23.0122 19.0938ZM23.3091 15.8516L23.3247 17.125H22.0669C21.77 17.125 21.5122 17.1589 21.2934 17.2266C21.0747 17.2943 20.895 17.3906 20.7544 17.5156C20.6138 17.6354 20.5096 17.776 20.4419 17.9375C20.3794 18.099 20.3481 18.276 20.3481 18.4688C20.3481 18.6615 20.3924 18.8359 20.4809 18.9922C20.5695 19.1432 20.6971 19.263 20.8638 19.3516C21.0304 19.4349 21.2257 19.4766 21.4497 19.4766C21.7882 19.4766 22.0825 19.4089 22.3325 19.2734C22.5825 19.138 22.7752 18.9714 22.9106 18.7734C23.0513 18.5755 23.1242 18.388 23.1294 18.2109L23.7231 19.1641C23.6398 19.3776 23.5252 19.599 23.3794 19.8281C23.2388 20.0573 23.0591 20.2734 22.8403 20.4766C22.6216 20.6745 22.3585 20.8385 22.0513 20.9688C21.744 21.0938 21.3794 21.1562 20.9575 21.1562C20.421 21.1562 19.9341 21.0495 19.4966 20.8359C19.0643 20.6172 18.7205 20.3177 18.4653 19.9375C18.2153 19.5521 18.0903 19.1146 18.0903 18.625C18.0903 18.1823 18.1736 17.7891 18.3403 17.4453C18.507 17.1016 18.7518 16.8125 19.0747 16.5781C19.4028 16.3385 19.8117 16.1589 20.3013 16.0391C20.7908 15.9141 21.3585 15.8516 22.0044 15.8516H23.3091ZM31.7425 18.6641C31.7425 18.5026 31.6956 18.3568 31.6019 18.2266C31.5081 18.0964 31.3336 17.9766 31.0784 17.8672C30.8284 17.7526 30.4665 17.6484 29.9925 17.5547C29.5654 17.4609 29.167 17.3438 28.7972 17.2031C28.4326 17.0573 28.1149 16.8828 27.8441 16.6797C27.5784 16.4766 27.3701 16.237 27.2191 15.9609C27.068 15.6797 26.9925 15.3594 26.9925 15C26.9925 14.6458 27.068 14.3125 27.2191 14C27.3753 13.6875 27.5967 13.4115 27.8831 13.1719C28.1748 12.9271 28.529 12.737 28.9456 12.6016C29.3675 12.4609 29.8415 12.3906 30.3675 12.3906C31.1019 12.3906 31.7321 12.5078 32.2581 12.7422C32.7894 12.9766 33.1956 13.2995 33.4769 13.7109C33.7633 14.1172 33.9066 14.5807 33.9066 15.1016H31.6566C31.6566 14.8828 31.6097 14.6875 31.5159 14.5156C31.4274 14.3385 31.2868 14.2005 31.0941 14.1016C30.9066 13.9974 30.6618 13.9453 30.3597 13.9453C30.1097 13.9453 29.8935 13.9896 29.7113 14.0781C29.529 14.1615 29.3883 14.276 29.2894 14.4219C29.1956 14.5625 29.1488 14.7188 29.1488 14.8906C29.1488 15.0208 29.1748 15.138 29.2269 15.2422C29.2842 15.3411 29.3753 15.4323 29.5003 15.5156C29.6253 15.599 29.7868 15.6771 29.9847 15.75C30.1878 15.8177 30.4378 15.8802 30.7347 15.9375C31.3441 16.0625 31.8883 16.2266 32.3675 16.4297C32.8467 16.6276 33.2269 16.8984 33.5081 17.2422C33.7894 17.5807 33.93 18.026 33.93 18.5781C33.93 18.9531 33.8467 19.2969 33.68 19.6094C33.5133 19.9219 33.2738 20.1953 32.9613 20.4297C32.6488 20.6589 32.2738 20.8385 31.8363 20.9688C31.404 21.0938 30.917 21.1562 30.3753 21.1562C29.5889 21.1562 28.9222 21.0156 28.3753 20.7344C27.8336 20.4531 27.4222 20.0964 27.1409 19.6641C26.8649 19.2266 26.7269 18.7786 26.7269 18.3203H28.8597C28.8701 18.6276 28.9482 18.875 29.0941 19.0625C29.2451 19.25 29.4352 19.3854 29.6644 19.4688C29.8988 19.5521 30.1514 19.5938 30.4222 19.5938C30.7139 19.5938 30.956 19.5547 31.1488 19.4766C31.3415 19.3932 31.4873 19.2839 31.5863 19.1484C31.6904 19.0078 31.7425 18.8464 31.7425 18.6641ZM39.6916 12.5469V14.1406H34.7697V12.5469H39.6916ZM35.9884 10.4609H38.2384V18.4531C38.2384 18.6979 38.2697 18.8854 38.3322 19.0156C38.3999 19.1458 38.4989 19.237 38.6291 19.2891C38.7593 19.3359 38.9233 19.3594 39.1213 19.3594C39.2619 19.3594 39.3869 19.3542 39.4963 19.3438C39.6108 19.3281 39.7072 19.3125 39.7853 19.2969L39.7931 20.9531C39.6004 21.0156 39.3921 21.0651 39.1681 21.1016C38.9442 21.138 38.6968 21.1562 38.4259 21.1562C37.9311 21.1562 37.4989 21.0755 37.1291 20.9141C36.7645 20.7474 36.4832 20.4818 36.2853 20.1172C36.0874 19.7526 35.9884 19.2734 35.9884 18.6797V10.4609ZM54.6756 9.625V21H52.3319L47.7616 13.375V21H45.4178V9.625H47.7616L52.3397 17.2578V9.625H54.6756ZM61.2966 19.0938V15.3281C61.2966 15.0573 61.2523 14.8255 61.1637 14.6328C61.0752 14.4349 60.9372 14.2812 60.7497 14.1719C60.5674 14.0625 60.3304 14.0078 60.0387 14.0078C59.7887 14.0078 59.5726 14.0521 59.3903 14.1406C59.208 14.224 59.0674 14.3464 58.9684 14.5078C58.8695 14.6641 58.82 14.849 58.82 15.0625H56.57C56.57 14.7031 56.6533 14.362 56.82 14.0391C56.9867 13.7161 57.2289 13.4323 57.5466 13.1875C57.8643 12.9375 58.2419 12.7422 58.6794 12.6016C59.1221 12.4609 59.6169 12.3906 60.1637 12.3906C60.82 12.3906 61.4033 12.5 61.9137 12.7188C62.4242 12.9375 62.8252 13.2656 63.1169 13.7031C63.4137 14.1406 63.5622 14.6875 63.5622 15.3438V18.9609C63.5622 19.4245 63.5908 19.8047 63.6481 20.1016C63.7054 20.3932 63.7887 20.6484 63.8981 20.8672V21H61.6247C61.5153 20.7708 61.432 20.4844 61.3747 20.1406C61.3226 19.7917 61.2966 19.4427 61.2966 19.0938ZM61.5934 15.8516L61.6091 17.125H60.3512C60.0544 17.125 59.7966 17.1589 59.5778 17.2266C59.3591 17.2943 59.1794 17.3906 59.0387 17.5156C58.8981 17.6354 58.794 17.776 58.7262 17.9375C58.6637 18.099 58.6325 18.276 58.6325 18.4688C58.6325 18.6615 58.6768 18.8359 58.7653 18.9922C58.8539 19.1432 58.9815 19.263 59.1481 19.3516C59.3148 19.4349 59.5101 19.4766 59.7341 19.4766C60.0726 19.4766 60.3669 19.4089 60.6169 19.2734C60.8669 19.138 61.0596 18.9714 61.195 18.7734C61.3356 18.5755 61.4085 18.388 61.4137 18.2109L62.0075 19.1641C61.9242 19.3776 61.8096 19.599 61.6637 19.8281C61.5231 20.0573 61.3434 20.2734 61.1247 20.4766C60.9059 20.6745 60.6429 20.8385 60.3356 20.9688C60.0283 21.0938 59.6637 21.1562 59.2419 21.1562C58.7054 21.1562 58.2184 21.0495 57.7809 20.8359C57.3486 20.6172 57.0049 20.3177 56.7497 19.9375C56.4997 19.5521 56.3747 19.1146 56.3747 18.625C56.3747 18.1823 56.458 17.7891 56.6247 17.4453C56.7914 17.1016 57.0361 16.8125 57.3591 16.5781C57.6872 16.3385 58.096 16.1589 58.5856 16.0391C59.0752 15.9141 59.6429 15.8516 60.2887 15.8516H61.5934ZM67.7066 14.2969V21H65.4487V12.5469H67.5659L67.7066 14.2969ZM67.3941 16.4766H66.7691C66.7691 15.888 66.8394 15.3464 66.98 14.8516C67.1258 14.3516 67.3368 13.9193 67.6128 13.5547C67.8941 13.1849 68.2404 12.8984 68.6519 12.6953C69.0633 12.4922 69.5399 12.3906 70.0816 12.3906C70.4566 12.3906 70.8003 12.4479 71.1128 12.5625C71.4253 12.6719 71.6935 12.8464 71.9175 13.0859C72.1467 13.3203 72.3237 13.6276 72.4487 14.0078C72.5737 14.3828 72.6362 14.8333 72.6362 15.3594V21H70.3862V15.6094C70.3862 15.224 70.3342 14.9271 70.23 14.7188C70.1258 14.5104 69.9774 14.3646 69.7847 14.2812C69.5972 14.1979 69.3706 14.1562 69.105 14.1562C68.8133 14.1562 68.5581 14.2161 68.3394 14.3359C68.1258 14.4557 67.9487 14.6224 67.8081 14.8359C67.6675 15.0443 67.5633 15.2891 67.4956 15.5703C67.4279 15.8516 67.3941 16.1536 67.3941 16.4766ZM72.4253 16.2188L71.6206 16.3203C71.6206 15.7682 71.6883 15.2552 71.8237 14.7812C71.9644 14.3073 72.1701 13.8906 72.4409 13.5312C72.717 13.1719 73.0581 12.8932 73.4644 12.6953C73.8706 12.4922 74.3394 12.3906 74.8706 12.3906C75.2769 12.3906 75.6467 12.4505 75.98 12.5703C76.3133 12.6849 76.5972 12.8698 76.8316 13.125C77.0711 13.375 77.2534 13.7031 77.3784 14.1094C77.5086 14.5156 77.5737 15.013 77.5737 15.6016V21H75.3159V15.6016C75.3159 15.2109 75.2639 14.9141 75.1597 14.7109C75.0607 14.5026 74.9149 14.3594 74.7222 14.2812C74.5347 14.1979 74.3107 14.1562 74.0503 14.1562C73.7795 14.1562 73.5425 14.2109 73.3394 14.3203C73.1362 14.4245 72.967 14.5703 72.8316 14.7578C72.6961 14.9453 72.5946 15.1641 72.5269 15.4141C72.4592 15.6589 72.4253 15.9271 72.4253 16.2188ZM83.3666 21.1562C82.7103 21.1562 82.1218 21.0521 81.6009 20.8438C81.0801 20.6302 80.6374 20.3359 80.2728 19.9609C79.9134 19.5859 79.6374 19.151 79.4447 18.6562C79.252 18.1562 79.1556 17.625 79.1556 17.0625V16.75C79.1556 16.1094 79.2468 15.5234 79.4291 14.9922C79.6114 14.4609 79.8718 14 80.2103 13.6094C80.5541 13.2188 80.9707 12.9193 81.4603 12.7109C81.9499 12.4974 82.502 12.3906 83.1166 12.3906C83.7155 12.3906 84.2468 12.4896 84.7103 12.6875C85.1739 12.8854 85.5619 13.1667 85.8744 13.5312C86.1921 13.8958 86.4317 14.3333 86.5931 14.8438C86.7546 15.349 86.8353 15.9115 86.8353 16.5312V17.4688H80.1166V15.9688H84.6244V15.7969C84.6244 15.4844 84.5671 15.2057 84.4525 14.9609C84.3431 14.7109 84.1765 14.513 83.9525 14.3672C83.7285 14.2214 83.4421 14.1484 83.0931 14.1484C82.7962 14.1484 82.541 14.2135 82.3275 14.3438C82.114 14.474 81.9395 14.6562 81.8041 14.8906C81.6739 15.125 81.5749 15.401 81.5072 15.7188C81.4447 16.0312 81.4134 16.375 81.4134 16.75V17.0625C81.4134 17.401 81.4603 17.7135 81.5541 18C81.653 18.2865 81.791 18.5339 81.9681 18.7422C82.1504 18.9505 82.3692 19.112 82.6244 19.2266C82.8848 19.3411 83.1791 19.3984 83.5072 19.3984C83.9134 19.3984 84.291 19.3203 84.64 19.1641C84.9942 19.0026 85.2989 18.7604 85.5541 18.4375L86.6478 19.625C86.4707 19.8802 86.2285 20.125 85.9212 20.3594C85.6192 20.5938 85.2546 20.7865 84.8275 20.9375C84.4004 21.0833 83.9134 21.1562 83.3666 21.1562Z" fill="white"/>
</g>
</g>
<defs>
<filter id="filter0_i_315_174" x="0" y="0" width="95" height="33" filterUnits="userSpaceOnUse" color-interpolation-filters="sRGB">
<feFlood flood-opacity="0" result="BackgroundImageFix"/>
<feBlend mode="normal" in="SourceGraphic" in2="BackgroundImageFix" result="shape"/>
<feColorMatrix in="SourceAlpha" type="matrix" values="0 0 0 0 0 0 0 0 0 0 0 0 0 0 0 0 0 0 127 0" result="hardAlpha"/>
<feOffset dy="2"/>
<feGaussianBlur stdDeviation="1"/>
<feComposite in2="hardAlpha" operator="arithmetic" k2="-1" k3="1"/>
<feColorMatrix type="matrix" values="0 0 0 0 0 0 0 0 0 0 0 0 0 0 0 0 0 0 0.1 0"/>
<feBlend mode="normal" in2="shape" result="effect1_innerShadow_315_174"/>
</filter>
<filter id="filter1_i_315_174" x="0" y="0" width="95" height="33" filterUnits="userSpaceOnUse" color-interpolation-filters="sRGB">
<feFlood flood-opacity="0" result="BackgroundImageFix"/>
<feBlend mode="normal" in="SourceGraphic" in2="BackgroundImageFix" result="shape"/>
<feColorMatrix in="SourceAlpha" type="matrix" values="0 0 0 0 0 0 0 0 0 0 0 0 0 0 0 0 0 0 127 0" result="hardAlpha"/>
<feOffset dy="2"/>
<feGaussianBlur stdDeviation="1"/>
<feComposite in2="hardAlpha" operator="arithmetic" k2="-1" k3="1"/>
<feColorMatrix type="matrix" values="0 0 0 0 0 0 0 0 0 0 0 0 0 0 0 0 0 0 0.1 0"/>
<feBlend mode="normal" in2="shape" result="effect1_innerShadow_315_174"/>
</filter>
</defs>
</svg>
