<svg width="95" height="33" viewBox="0 0 95 33" fill="none" xmlns="http://www.w3.org/2000/svg">
<g filter="url(#filter0_i_279_294)">
<rect width="95" height="31" rx="15.5" fill="#F0F0F0"/>
</g>
<mask id="mask0_279_294" style="mask-type:alpha" maskUnits="userSpaceOnUse" x="0" y="0" width="95" height="31">
<rect width="95" height="31" rx="15.5" fill="#F0F0F0"/>
</mask>
<g mask="url(#mask0_279_294)">
<path d="M17.1413 9.625V21H14.8053V9.625H17.1413ZM21.5591 14.3516V21H19.3091V12.5469H21.4184L21.5591 14.3516ZM21.2309 16.4766H20.6216C20.6216 15.8516 20.7023 15.2891 20.8638 14.7891C21.0252 14.2839 21.2518 13.8542 21.5434 13.5C21.8351 13.1406 22.1815 12.8672 22.5825 12.6797C22.9888 12.487 23.4419 12.3906 23.9419 12.3906C24.3377 12.3906 24.6997 12.4479 25.0278 12.5625C25.3559 12.6771 25.6372 12.8594 25.8716 13.1094C26.1111 13.3594 26.2934 13.6901 26.4184 14.1016C26.5486 14.513 26.6138 15.0156 26.6138 15.6094V21H24.3481V15.6016C24.3481 15.2266 24.296 14.9349 24.1919 14.7266C24.0877 14.5182 23.9341 14.3724 23.7309 14.2891C23.533 14.2005 23.2882 14.1562 22.9966 14.1562C22.6945 14.1562 22.4315 14.2161 22.2075 14.3359C21.9888 14.4557 21.8065 14.6224 21.6606 14.8359C21.52 15.0443 21.4132 15.2891 21.3403 15.5703C21.2674 15.8516 21.2309 16.1536 21.2309 16.4766ZM32.6253 12.5469V14.1406H27.7034V12.5469H32.6253ZM28.9222 10.4609H31.1722V18.4531C31.1722 18.6979 31.2034 18.8854 31.2659 19.0156C31.3336 19.1458 31.4326 19.237 31.5628 19.2891C31.693 19.3359 31.8571 19.3594 32.055 19.3594C32.1956 19.3594 32.3206 19.3542 32.43 19.3438C32.5446 19.3281 32.6409 19.3125 32.7191 19.2969L32.7269 20.9531C32.5342 21.0156 32.3258 21.0651 32.1019 21.1016C31.8779 21.138 31.6305 21.1562 31.3597 21.1562C30.8649 21.1562 30.4326 21.0755 30.0628 20.9141C29.6982 20.7474 29.417 20.4818 29.2191 20.1172C29.0211 19.7526 28.9222 19.2734 28.9222 18.6797V10.4609ZM37.9572 21.1562C37.3009 21.1562 36.7124 21.0521 36.1916 20.8438C35.6707 20.6302 35.228 20.3359 34.8634 19.9609C34.5041 19.5859 34.228 19.151 34.0353 18.6562C33.8426 18.1562 33.7463 17.625 33.7463 17.0625V16.75C33.7463 16.1094 33.8374 15.5234 34.0197 14.9922C34.202 14.4609 34.4624 14 34.8009 13.6094C35.1447 13.2188 35.5614 12.9193 36.0509 12.7109C36.5405 12.4974 37.0926 12.3906 37.7072 12.3906C38.3061 12.3906 38.8374 12.4896 39.3009 12.6875C39.7645 12.8854 40.1525 13.1667 40.465 13.5312C40.7827 13.8958 41.0223 14.3333 41.1838 14.8438C41.3452 15.349 41.4259 15.9115 41.4259 16.5312V17.4688H34.7072V15.9688H39.215V15.7969C39.215 15.4844 39.1577 15.2057 39.0431 14.9609C38.9338 14.7109 38.7671 14.513 38.5431 14.3672C38.3192 14.2214 38.0327 14.1484 37.6838 14.1484C37.3869 14.1484 37.1317 14.2135 36.9181 14.3438C36.7046 14.474 36.5301 14.6562 36.3947 14.8906C36.2645 15.125 36.1655 15.401 36.0978 15.7188C36.0353 16.0312 36.0041 16.375 36.0041 16.75V17.0625C36.0041 17.401 36.0509 17.7135 36.1447 18C36.2436 18.2865 36.3817 18.5339 36.5588 18.7422C36.741 18.9505 36.9598 19.112 37.215 19.2266C37.4754 19.3411 37.7697 19.3984 38.0978 19.3984C38.5041 19.3984 38.8817 19.3203 39.2306 19.1641C39.5848 19.0026 39.8895 18.7604 40.1447 18.4375L41.2384 19.625C41.0614 19.8802 40.8192 20.125 40.5119 20.3594C40.2098 20.5938 39.8452 20.7865 39.4181 20.9375C38.991 21.0833 38.5041 21.1562 37.9572 21.1562ZM45.1172 14.3906V21H42.8672V12.5469H44.9844L45.1172 14.3906ZM47.6641 12.4922L47.625 14.5781C47.5156 14.5625 47.3828 14.5495 47.2266 14.5391C47.0755 14.5234 46.9375 14.5156 46.8125 14.5156C46.4948 14.5156 46.2188 14.5573 45.9844 14.6406C45.7552 14.7188 45.5625 14.8359 45.4062 14.9922C45.2552 15.1484 45.1406 15.3385 45.0625 15.5625C44.9896 15.7865 44.9479 16.0417 44.9375 16.3281L44.4844 16.1875C44.4844 15.6406 44.5391 15.138 44.6484 14.6797C44.7578 14.2161 44.9167 13.8125 45.125 13.4688C45.3385 13.125 45.599 12.8594 45.9062 12.6719C46.2135 12.4844 46.5651 12.3906 46.9609 12.3906C47.0859 12.3906 47.2135 12.401 47.3438 12.4219C47.474 12.4375 47.5807 12.4609 47.6641 12.4922ZM51.9022 19.3594L53.7772 12.5469H56.1287L53.2772 21H51.8553L51.9022 19.3594ZM50.6131 12.5469L52.4959 19.3672L52.535 21H51.1053L48.2537 12.5469H50.6131ZM59.6716 12.5469V21H57.4137V12.5469H59.6716ZM57.2731 10.3438C57.2731 10.0156 57.3877 9.74479 57.6169 9.53125C57.846 9.31771 58.1533 9.21094 58.5387 9.21094C58.919 9.21094 59.2236 9.31771 59.4528 9.53125C59.6872 9.74479 59.8044 10.0156 59.8044 10.3438C59.8044 10.6719 59.6872 10.9427 59.4528 11.1562C59.2236 11.3698 58.919 11.4766 58.5387 11.4766C58.1533 11.4766 57.846 11.3698 57.6169 11.1562C57.3877 10.9427 57.2731 10.6719 57.2731 10.3438ZM65.5816 21.1562C64.9253 21.1562 64.3368 21.0521 63.8159 20.8438C63.2951 20.6302 62.8524 20.3359 62.4878 19.9609C62.1284 19.5859 61.8524 19.151 61.6597 18.6562C61.467 18.1562 61.3706 17.625 61.3706 17.0625V16.75C61.3706 16.1094 61.4618 15.5234 61.6441 14.9922C61.8264 14.4609 62.0868 14 62.4253 13.6094C62.7691 13.2188 63.1857 12.9193 63.6753 12.7109C64.1649 12.4974 64.717 12.3906 65.3316 12.3906C65.9305 12.3906 66.4618 12.4896 66.9253 12.6875C67.3889 12.8854 67.7769 13.1667 68.0894 13.5312C68.4071 13.8958 68.6467 14.3333 68.8081 14.8438C68.9696 15.349 69.0503 15.9115 69.0503 16.5312V17.4688H62.3316V15.9688H66.8394V15.7969C66.8394 15.4844 66.7821 15.2057 66.6675 14.9609C66.5581 14.7109 66.3915 14.513 66.1675 14.3672C65.9435 14.2214 65.6571 14.1484 65.3081 14.1484C65.0112 14.1484 64.756 14.2135 64.5425 14.3438C64.329 14.474 64.1545 14.6562 64.0191 14.8906C63.8889 15.125 63.7899 15.401 63.7222 15.7188C63.6597 16.0312 63.6284 16.375 63.6284 16.75V17.0625C63.6284 17.401 63.6753 17.7135 63.7691 18C63.868 18.2865 64.006 18.5339 64.1831 18.7422C64.3654 18.9505 64.5842 19.112 64.8394 19.2266C65.0998 19.3411 65.3941 19.3984 65.7222 19.3984C66.1284 19.3984 66.506 19.3203 66.855 19.1641C67.2092 19.0026 67.5139 18.7604 67.7691 18.4375L68.8628 19.625C68.6857 19.8802 68.4435 20.125 68.1362 20.3594C67.8342 20.5938 67.4696 20.7865 67.0425 20.9375C66.6154 21.0833 66.1284 21.1562 65.5816 21.1562ZM72.9056 18.8125L74.6634 12.5469H76.0931L75.6322 15.0078L73.8744 21H72.6791L72.9056 18.8125ZM72.015 12.5469L73.2728 18.8047L73.39 21H71.9837L69.8431 12.5469H72.015ZM77.7025 18.7031L78.9291 12.5469H81.1087L78.9681 21H77.5697L77.7025 18.7031ZM76.2884 12.5469L78.0384 18.7656L78.2806 21H77.0775L75.3197 15.0156L74.8744 12.5469H76.2884Z" fill="#8C8C8C"/>
<mask id="mask1_279_294" style="mask-type:alpha" maskUnits="userSpaceOnUse" x="0" y="0" width="95" height="31">
<rect width="95" height="31" rx="15.5" fill="#20A2A2"/>
</mask>
<g mask="url(#mask1_279_294)">
<g filter="url(#filter1_i_279_294)">
<rect width="95" height="31" rx="15.5" fill="#236AF2"/>
</g>
<path d="M15.3678 16.9453H12.4694V15.1172H15.3678C15.8157 15.1172 16.1803 15.0443 16.4616 14.8984C16.7428 14.7474 16.9485 14.5391 17.0788 14.2734C17.209 14.0078 17.2741 13.7083 17.2741 13.375C17.2741 13.0365 17.209 12.7214 17.0788 12.4297C16.9485 12.138 16.7428 11.9036 16.4616 11.7266C16.1803 11.5495 15.8157 11.4609 15.3678 11.4609H13.2819V21H10.9381V9.625H15.3678C16.2584 9.625 17.0215 9.78646 17.6569 10.1094C18.2975 10.4271 18.7871 10.8672 19.1256 11.4297C19.4642 11.9922 19.6334 12.6354 19.6334 13.3594C19.6334 14.0938 19.4642 14.7292 19.1256 15.2656C18.7871 15.8021 18.2975 16.2161 17.6569 16.5078C17.0215 16.7995 16.2584 16.9453 15.3678 16.9453ZM23.4653 9V21H21.2153V9H23.4653ZM23.145 16.4766H22.5278C22.533 15.888 22.6111 15.3464 22.7622 14.8516C22.9132 14.3516 23.1294 13.9193 23.4106 13.5547C23.6919 13.1849 24.0278 12.8984 24.4184 12.6953C24.8143 12.4922 25.2518 12.3906 25.7309 12.3906C26.1476 12.3906 26.5252 12.4505 26.8638 12.5703C27.2075 12.6849 27.5018 12.8724 27.7466 13.1328C27.9966 13.388 28.1893 13.724 28.3247 14.1406C28.4601 14.5573 28.5278 15.0625 28.5278 15.6562V21H26.2622V15.6406C26.2622 15.2656 26.2075 14.9714 26.0981 14.7578C25.994 14.5391 25.8403 14.3854 25.6372 14.2969C25.4393 14.2031 25.1945 14.1562 24.9028 14.1562C24.5799 14.1562 24.3039 14.2161 24.0747 14.3359C23.8507 14.4557 23.671 14.6224 23.5356 14.8359C23.4002 15.0443 23.3013 15.2891 23.2388 15.5703C23.1763 15.8516 23.145 16.1536 23.145 16.4766ZM30.0394 16.8594V16.6953C30.0394 16.0755 30.1279 15.5052 30.305 14.9844C30.4821 14.4583 30.7399 14.0026 31.0784 13.6172C31.417 13.2318 31.8336 12.9323 32.3284 12.7188C32.8232 12.5 33.3909 12.3906 34.0316 12.3906C34.6722 12.3906 35.2425 12.5 35.7425 12.7188C36.2425 12.9323 36.6618 13.2318 37.0003 13.6172C37.3441 14.0026 37.6045 14.4583 37.7816 14.9844C37.9586 15.5052 38.0472 16.0755 38.0472 16.6953V16.8594C38.0472 17.474 37.9586 18.0443 37.7816 18.5703C37.6045 19.0911 37.3441 19.5469 37.0003 19.9375C36.6618 20.3229 36.2451 20.6224 35.7503 20.8359C35.2555 21.0495 34.6878 21.1562 34.0472 21.1562C33.4066 21.1562 32.8363 21.0495 32.3363 20.8359C31.8415 20.6224 31.4222 20.3229 31.0784 19.9375C30.7399 19.5469 30.4821 19.0911 30.305 18.5703C30.1279 18.0443 30.0394 17.474 30.0394 16.8594ZM32.2894 16.6953V16.8594C32.2894 17.2135 32.3206 17.5443 32.3831 17.8516C32.4456 18.1589 32.5446 18.4297 32.68 18.6641C32.8206 18.8932 33.0029 19.0729 33.2269 19.2031C33.4508 19.3333 33.7243 19.3984 34.0472 19.3984C34.3597 19.3984 34.6279 19.3333 34.8519 19.2031C35.0758 19.0729 35.2555 18.8932 35.3909 18.6641C35.5264 18.4297 35.6253 18.1589 35.6878 17.8516C35.7555 17.5443 35.7894 17.2135 35.7894 16.8594V16.6953C35.7894 16.3516 35.7555 16.0286 35.6878 15.7266C35.6253 15.4193 35.5238 15.1484 35.3831 14.9141C35.2477 14.6745 35.068 14.487 34.8441 14.3516C34.6201 14.2161 34.3493 14.1484 34.0316 14.1484C33.7139 14.1484 33.443 14.2161 33.2191 14.3516C33.0003 14.487 32.8206 14.6745 32.68 14.9141C32.5446 15.1484 32.4456 15.4193 32.3831 15.7266C32.3206 16.0286 32.2894 16.3516 32.2894 16.6953ZM41.7931 14.3516V21H39.5431V12.5469H41.6525L41.7931 14.3516ZM41.465 16.4766H40.8556C40.8556 15.8516 40.9364 15.2891 41.0978 14.7891C41.2593 14.2839 41.4858 13.8542 41.7775 13.5C42.0692 13.1406 42.4155 12.8672 42.8166 12.6797C43.2228 12.487 43.6759 12.3906 44.1759 12.3906C44.5718 12.3906 44.9338 12.4479 45.2619 12.5625C45.59 12.6771 45.8713 12.8594 46.1056 13.1094C46.3452 13.3594 46.5275 13.6901 46.6525 14.1016C46.7827 14.513 46.8478 15.0156 46.8478 15.6094V21H44.5822V15.6016C44.5822 15.2266 44.5301 14.9349 44.4259 14.7266C44.3218 14.5182 44.1681 14.3724 43.965 14.2891C43.7671 14.2005 43.5223 14.1562 43.2306 14.1562C42.9285 14.1562 42.6655 14.2161 42.4416 14.3359C42.2228 14.4557 42.0405 14.6224 41.8947 14.8359C41.7541 15.0443 41.6473 15.2891 41.5744 15.5703C41.5015 15.8516 41.465 16.1536 41.465 16.4766ZM52.6094 21.1562C51.9531 21.1562 51.3646 21.0521 50.8438 20.8438C50.3229 20.6302 49.8802 20.3359 49.5156 19.9609C49.1562 19.5859 48.8802 19.151 48.6875 18.6562C48.4948 18.1562 48.3984 17.625 48.3984 17.0625V16.75C48.3984 16.1094 48.4896 15.5234 48.6719 14.9922C48.8542 14.4609 49.1146 14 49.4531 13.6094C49.7969 13.2188 50.2135 12.9193 50.7031 12.7109C51.1927 12.4974 51.7448 12.3906 52.3594 12.3906C52.9583 12.3906 53.4896 12.4896 53.9531 12.6875C54.4167 12.8854 54.8047 13.1667 55.1172 13.5312C55.4349 13.8958 55.6745 14.3333 55.8359 14.8438C55.9974 15.349 56.0781 15.9115 56.0781 16.5312V17.4688H49.3594V15.9688H53.8672V15.7969C53.8672 15.4844 53.8099 15.2057 53.6953 14.9609C53.5859 14.7109 53.4193 14.513 53.1953 14.3672C52.9714 14.2214 52.6849 14.1484 52.3359 14.1484C52.0391 14.1484 51.7839 14.2135 51.5703 14.3438C51.3568 14.474 51.1823 14.6562 51.0469 14.8906C50.9167 15.125 50.8177 15.401 50.75 15.7188C50.6875 16.0312 50.6562 16.375 50.6562 16.75V17.0625C50.6562 17.401 50.7031 17.7135 50.7969 18C50.8958 18.2865 51.0339 18.5339 51.2109 18.7422C51.3932 18.9505 51.612 19.112 51.8672 19.2266C52.1276 19.3411 52.4219 19.3984 52.75 19.3984C53.1562 19.3984 53.5339 19.3203 53.8828 19.1641C54.237 19.0026 54.5417 18.7604 54.7969 18.4375L55.8906 19.625C55.7135 19.8802 55.4714 20.125 55.1641 20.3594C54.862 20.5938 54.4974 20.7865 54.0703 20.9375C53.6432 21.0833 53.1562 21.1562 52.6094 21.1562ZM71.0622 9.625V21H68.7184L64.1481 13.375V21H61.8044V9.625H64.1481L68.7262 17.2578V9.625H71.0622ZM72.7612 16.8594V16.6953C72.7612 16.0755 72.8498 15.5052 73.0269 14.9844C73.204 14.4583 73.4618 14.0026 73.8003 13.6172C74.1389 13.2318 74.5555 12.9323 75.0503 12.7188C75.5451 12.5 76.1128 12.3906 76.7534 12.3906C77.3941 12.3906 77.9644 12.5 78.4644 12.7188C78.9644 12.9323 79.3836 13.2318 79.7222 13.6172C80.0659 14.0026 80.3264 14.4583 80.5034 14.9844C80.6805 15.5052 80.7691 16.0755 80.7691 16.6953V16.8594C80.7691 17.474 80.6805 18.0443 80.5034 18.5703C80.3264 19.0911 80.0659 19.5469 79.7222 19.9375C79.3836 20.3229 78.967 20.6224 78.4722 20.8359C77.9774 21.0495 77.4097 21.1562 76.7691 21.1562C76.1284 21.1562 75.5581 21.0495 75.0581 20.8359C74.5633 20.6224 74.1441 20.3229 73.8003 19.9375C73.4618 19.5469 73.204 19.0911 73.0269 18.5703C72.8498 18.0443 72.7612 17.474 72.7612 16.8594ZM75.0112 16.6953V16.8594C75.0112 17.2135 75.0425 17.5443 75.105 17.8516C75.1675 18.1589 75.2665 18.4297 75.4019 18.6641C75.5425 18.8932 75.7248 19.0729 75.9487 19.2031C76.1727 19.3333 76.4461 19.3984 76.7691 19.3984C77.0816 19.3984 77.3498 19.3333 77.5737 19.2031C77.7977 19.0729 77.9774 18.8932 78.1128 18.6641C78.2482 18.4297 78.3472 18.1589 78.4097 17.8516C78.4774 17.5443 78.5112 17.2135 78.5112 16.8594V16.6953C78.5112 16.3516 78.4774 16.0286 78.4097 15.7266C78.3472 15.4193 78.2456 15.1484 78.105 14.9141C77.9696 14.6745 77.7899 14.487 77.5659 14.3516C77.342 14.2161 77.0711 14.1484 76.7534 14.1484C76.4357 14.1484 76.1649 14.2161 75.9409 14.3516C75.7222 14.487 75.5425 14.6745 75.4019 14.9141C75.2665 15.1484 75.1675 15.4193 75.105 15.7266C75.0425 16.0286 75.0112 16.3516 75.0112 16.6953ZM82.4212 19.9141C82.4212 19.5807 82.5358 19.3021 82.765 19.0781C82.9994 18.8542 83.3093 18.7422 83.6947 18.7422C84.0801 18.7422 84.3874 18.8542 84.6166 19.0781C84.8509 19.3021 84.9681 19.5807 84.9681 19.9141C84.9681 20.2474 84.8509 20.526 84.6166 20.75C84.3874 20.974 84.0801 21.0859 83.6947 21.0859C83.3093 21.0859 82.9994 20.974 82.765 20.75C82.5358 20.526 82.4212 20.2474 82.4212 19.9141Z" fill="white"/>
</g>
</g>
<defs>
<filter id="filter0_i_279_294" x="0" y="0" width="95" height="33" filterUnits="userSpaceOnUse" color-interpolation-filters="sRGB">
<feFlood flood-opacity="0" result="BackgroundImageFix"/>
<feBlend mode="normal" in="SourceGraphic" in2="BackgroundImageFix" result="shape"/>
<feColorMatrix in="SourceAlpha" type="matrix" values="0 0 0 0 0 0 0 0 0 0 0 0 0 0 0 0 0 0 127 0" result="hardAlpha"/>
<feOffset dy="2"/>
<feGaussianBlur stdDeviation="1"/>
<feComposite in2="hardAlpha" operator="arithmetic" k2="-1" k3="1"/>
<feColorMatrix type="matrix" values="0 0 0 0 0 0 0 0 0 0 0 0 0 0 0 0 0 0 0.1 0"/>
<feBlend mode="normal" in2="shape" result="effect1_innerShadow_279_294"/>
</filter>
<filter id="filter1_i_279_294" x="0" y="0" width="95" height="33" filterUnits="userSpaceOnUse" color-interpolation-filters="sRGB">
<feFlood flood-opacity="0" result="BackgroundImageFix"/>
<feBlend mode="normal" in="SourceGraphic" in2="BackgroundImageFix" result="shape"/>
<feColorMatrix in="SourceAlpha" type="matrix" values="0 0 0 0 0 0 0 0 0 0 0 0 0 0 0 0 0 0 127 0" result="hardAlpha"/>
<feOffset dy="2"/>
<feGaussianBlur stdDeviation="1"/>
<feComposite in2="hardAlpha" operator="arithmetic" k2="-1" k3="1"/>
<feColorMatrix type="matrix" values="0 0 0 0 0 0 0 0 0 0 0 0 0 0 0 0 0 0 0.1 0"/>
<feBlend mode="normal" in2="shape" result="effect1_innerShadow_279_294"/>
</filter>
</defs>
</svg>
