<svg width="40" height="41" viewBox="0 0 40 41" fill="none" xmlns="http://www.w3.org/2000/svg">
<g clip-path="url(#clip0_50_239)">
<path d="M20 39.3106C30.6039 39.3106 39.2001 30.7145 39.2001 20.1106C39.2001 9.50678 30.6039 0.910645 20 0.910645C9.39618 0.910645 0.800049 9.50678 0.800049 20.1106C0.800049 30.7145 9.39618 39.3106 20 39.3106Z" fill="#EA4C89"/>
<path fill-rule="evenodd" clip-rule="evenodd" d="M20 0.110596C8.9588 0.110596 0 9.0694 0 20.1106C0 31.1518 8.9588 40.1106 20 40.1106C31.0195 40.1106 40 31.1518 40 20.1106C40 9.0694 31.0195 0.110596 20 0.110596ZM33.2104 9.32968C35.5965 12.2364 37.0282 15.9458 37.0716 19.9588C36.5076 19.8503 30.8677 18.7006 25.1844 19.4164C25.0542 19.1345 24.9458 18.8308 24.8156 18.5271C24.4686 17.7028 24.0781 16.8568 23.6876 16.0542C29.9783 13.4946 32.8416 9.80692 33.2104 9.32968ZM20 3.0607C24.3384 3.0607 28.308 4.6876 31.3232 7.35572C31.0195 7.78956 28.4382 11.2386 22.3644 13.5162C19.5662 8.37524 16.4642 4.167 15.987 3.51624C17.2668 3.21255 18.6117 3.0607 20 3.0607ZM12.7332 4.66592C13.1887 5.27328 16.2256 9.50324 19.0672 14.5358C11.0846 16.6616 4.03472 16.6182 3.27549 16.6182C4.38176 11.3254 7.96096 6.92188 12.7332 4.66592ZM2.90672 20.1323C2.90672 19.9588 2.90672 19.7852 2.90672 19.6117C3.64425 19.6334 11.9306 19.7418 20.4555 17.1822C20.9544 18.1366 21.41 19.1128 21.8438 20.0889C21.6269 20.154 21.3883 20.2191 21.1714 20.2841C12.3644 23.1258 7.67896 30.8915 7.28852 31.5423C4.577 28.5271 2.90672 24.5141 2.90672 20.1323ZM20 37.2039C16.0521 37.2039 12.4078 35.859 9.52276 33.603C9.82648 32.974 13.2972 26.2928 22.9284 22.9306C22.9718 22.9089 22.9935 22.9089 23.0369 22.8872C25.4447 29.1128 26.4208 34.3405 26.6811 35.8373C24.6204 36.7266 22.3644 37.2039 20 37.2039ZM29.5228 34.2755C29.3492 33.2342 28.4382 28.2451 26.2039 22.1063C31.5618 21.2603 36.2473 22.6486 36.833 22.8438C36.0954 27.5943 33.3622 31.6941 29.5228 34.2755Z" fill="#C32361"/>
</g>
<defs>
<clipPath id="clip0_50_239">
<rect width="40" height="40" fill="white" transform="translate(0 0.110596)"/>
</clipPath>
</defs>
</svg>
