<svg width="46" height="30" viewBox="0 0 46 30" fill="none" xmlns="http://www.w3.org/2000/svg">
<path d="M35.3776 12.1875C35.3776 9.94974 34.0358 7.80362 31.6473 6.22129C29.2589 4.63895 26.0195 3.75 22.6417 3.75C19.264 3.75 16.0246 4.63895 13.6361 6.22129C11.2477 7.80362 9.90587 9.94974 9.90587 12.1875C9.90587 15.6487 14.0861 20.16 22.6417 25.5637C31.1974 20.16 35.3776 15.6487 35.3776 12.1875ZM22.6417 28.125C12.2634 21.8756 7.07568 16.5619 7.07568 12.1875C7.07568 9.45246 8.71567 6.82943 11.6349 4.89546C14.5541 2.96149 18.5134 1.875 22.6417 1.875C26.7701 1.875 30.7294 2.96149 33.6486 4.89546C36.5678 6.82943 38.2078 9.45246 38.2078 12.1875C38.2078 16.5619 33.02 21.8756 22.6417 28.125Z" fill="black"/>
<path d="M22.6414 15C23.7673 15 24.8471 14.7037 25.6433 14.1762C26.4394 13.6488 26.8867 12.9334 26.8867 12.1875C26.8867 11.4416 26.4394 10.7262 25.6433 10.1988C24.8471 9.67132 23.7673 9.375 22.6414 9.375C21.5155 9.375 20.4357 9.67132 19.6395 10.1988C18.8434 10.7262 18.3961 11.4416 18.3961 12.1875C18.3961 12.9334 18.8434 13.6488 19.6395 14.1762C20.4357 14.7037 21.5155 15 22.6414 15V15ZM22.6414 16.875C20.7649 16.875 18.9652 16.3811 17.6383 15.5021C16.3114 14.623 15.5659 13.4307 15.5659 12.1875C15.5659 10.9443 16.3114 9.75201 17.6383 8.87294C18.9652 7.99386 20.7649 7.5 22.6414 7.5C24.5179 7.5 26.3176 7.99386 27.6445 8.87294C28.9714 9.75201 29.7169 10.9443 29.7169 12.1875C29.7169 13.4307 28.9714 14.623 27.6445 15.5021C26.3176 16.3811 24.5179 16.875 22.6414 16.875Z" fill="black"/>
</svg>
