<svg width="46" height="30" viewBox="0 0 46 30" fill="none" xmlns="http://www.w3.org/2000/svg">
<path d="M35.3771 12.1875C35.3771 9.94974 34.0353 7.80362 31.6468 6.22129C29.2584 4.63895 26.019 3.75 22.6412 3.75C19.2635 3.75 16.0241 4.63895 13.6356 6.22129C11.2472 7.80362 9.90538 9.94974 9.90538 12.1875C9.90538 15.6488 14.0856 20.16 22.6412 25.5637C31.1969 20.16 35.3771 15.6488 35.3771 12.1875ZM22.6412 28.125C12.2629 21.8756 7.0752 16.5619 7.0752 12.1875C7.0752 9.45246 8.71518 6.82943 11.6344 4.89546C14.5536 2.96149 18.5129 1.875 22.6412 1.875C26.7696 1.875 30.7289 2.96149 33.6481 4.89546C36.5673 6.82943 38.2073 9.45246 38.2073 12.1875C38.2073 16.5619 33.0195 21.8756 22.6412 28.125Z" fill="black"/>
<path d="M22.6419 15C23.7678 15 24.8476 14.7037 25.6437 14.1762C26.4399 13.6488 26.8872 12.9334 26.8872 12.1875C26.8872 11.4416 26.4399 10.7262 25.6437 10.1988C24.8476 9.67132 23.7678 9.375 22.6419 9.375C21.516 9.375 20.4362 9.67132 19.64 10.1988C18.8439 10.7262 18.3966 11.4416 18.3966 12.1875C18.3966 12.9334 18.8439 13.6488 19.64 14.1762C20.4362 14.7037 21.516 15 22.6419 15ZM22.6419 16.875C20.7653 16.875 18.9657 16.3811 17.6388 15.5021C16.3119 14.623 15.5664 13.4307 15.5664 12.1875C15.5664 10.9443 16.3119 9.75201 17.6388 8.87294C18.9657 7.99386 20.7653 7.5 22.6419 7.5C24.5184 7.5 26.3181 7.99386 27.645 8.87294C28.9719 9.75201 29.7174 10.9443 29.7174 12.1875C29.7174 13.4307 28.9719 14.623 27.645 15.5021C26.3181 16.3811 24.5184 16.875 22.6419 16.875Z" fill="black"/>
</svg>
