<svg width="48" height="49" viewBox="0 0 48 49" fill="none" xmlns="http://www.w3.org/2000/svg">
<g clip-path="url(#clip0_201_522)">
<path d="M48 24.1687C48 10.9139 37.2548 0.168701 24 0.168701C10.7452 0.168701 0 10.9139 0 24.1687C0 36.1476 8.77641 46.0767 20.25 47.8771V31.1062H14.1562V24.1687H20.25V18.8812C20.25 12.8662 23.8331 9.5437 29.3152 9.5437C31.9402 9.5437 34.6875 10.0125 34.6875 10.0125V15.9187H31.6613C28.68 15.9187 27.75 17.7689 27.75 19.6687V24.1687H34.4062L33.3422 31.1062H27.75V47.8771C39.2236 46.0767 48 36.1476 48 24.1687Z" fill="black"/>
</g>
<defs>
<clipPath id="clip0_201_522">
<rect width="48" height="48" fill="white" transform="translate(0 0.168701)"/>
</clipPath>
</defs>
</svg>
