<svg width="32" height="32" viewBox="0 0 32 32" fill="none" xmlns="http://www.w3.org/2000/svg">
<path fill-rule="evenodd" clip-rule="evenodd" d="M4.15574 3.46989C4.4986 3.31024 4.87969 3.25107 5.2548 3.29926C5.62992 3.34744 5.98369 3.501 6.27506 3.74211L6.27974 3.74598C9.42209 6.3786 12.6246 7.69286 15.0375 8.34917C16.2438 8.67729 17.2502 8.84017 17.9482 8.92094C18.2971 8.96131 18.5683 8.9811 18.7483 8.99079C18.8383 8.99563 18.9054 8.99795 18.948 8.99906C18.9692 8.99961 18.9844 8.99986 18.9931 8.99998L19.0008 9.00006L24 9.00004C25.5913 9.00004 27.1175 9.63218 28.2427 10.7574C29.3679 11.8826 30 13.4087 30 15C30 16.5913 29.3679 18.1175 28.2427 19.2427C27.3064 20.1789 26.0927 20.7738 24.7947 20.9472L23.3204 26.8667L23.3198 26.8692C23.2416 27.1799 23.0899 27.4672 22.8775 27.707C22.6651 27.9468 22.3982 28.132 22.0993 28.2472C21.8004 28.3623 21.4782 28.404 21.1598 28.3687C20.8423 28.3335 20.5378 28.2227 20.2718 28.0456L20.2698 28.0442L18.9007 27.1356C18.6224 26.9539 18.3941 26.7052 18.2368 26.4123C18.0793 26.1193 17.9979 25.7914 18.0001 25.4587V21.0732C17.983 21.0752 17.9657 21.0771 17.9482 21.0791C17.2501 21.1599 16.2438 21.3228 15.0375 21.6509C12.6246 22.3072 9.42207 23.6215 6.27973 26.2541L6.27507 26.258C5.9837 26.4991 5.62993 26.6526 5.2548 26.7008C4.87968 26.749 4.49859 26.6898 4.15574 26.5302C3.81289 26.3705 3.52234 26.1169 3.31778 25.7988C3.11323 25.4807 3.00306 25.1111 3.00006 24.733L3 24.725L3.00003 5.26711C3.00303 4.88892 3.11323 4.51934 3.31778 4.20123C3.52234 3.88312 3.81289 3.62954 4.15574 3.46989ZM18.0001 19.0621C17.9114 19.0709 17.8174 19.0809 17.7183 19.0924C16.9343 19.1831 15.8281 19.3632 14.5126 19.721C11.883 20.4363 8.40618 21.8648 5.00003 24.7171V5.28301C8.40618 8.13527 11.883 9.56381 14.5126 10.2791C15.8281 10.6369 16.9343 10.817 17.7183 10.9077C17.8174 10.9192 17.9114 10.9292 18.0001 10.938V19.0621ZM20.0001 11.0001V19L24.0001 19.0001C25.0609 19.0001 26.0783 18.5786 26.8285 17.8285C27.5786 17.0783 28 16.0609 28 15C28 13.9392 27.5786 12.9218 26.8285 12.1716C26.0783 11.4215 25.0609 11 24 11L20.0001 11.0001ZM20.0001 21L22.7205 21.0001L21.3803 26.3809L21.378 26.3793L20.003 25.4668L20.0001 25.4649V21Z" fill="black"/>
</svg>
