<svg width="32" height="32" viewBox="0 0 32 32" fill="none" xmlns="http://www.w3.org/2000/svg">
<path fill-rule="evenodd" clip-rule="evenodd" d="M14.4807 4.67238C15.3832 3.71349 16.9071 3.71349 17.8096 4.67238L28.0409 15.5431C28.4399 15.9671 28.6621 16.5274 28.6621 17.1097V27.3866C28.6621 28.649 27.6388 29.6723 26.3764 29.6723H20.6803C19.4179 29.6723 18.3946 28.649 18.3946 27.3866V21.753L18.3945 21.7498C18.3941 21.7409 18.3933 21.7221 18.3912 21.6951C18.3871 21.6405 18.3781 21.5545 18.3592 21.448C18.3204 21.23 18.2449 20.955 18.105 20.6926C17.9682 20.436 17.7768 20.2033 17.5006 20.0307C17.2281 19.8604 16.8077 19.7075 16.1451 19.7075C14.5152 19.7075 13.9723 20.3194 13.748 20.7167C13.611 20.9593 13.5451 21.2126 13.5157 21.4135C13.5013 21.5117 13.4967 21.5904 13.4954 21.639C13.4948 21.6623 13.4949 21.678 13.4951 21.6847L13.4966 21.7091V27.3866C13.4966 28.649 12.4733 29.6723 11.2109 29.6723H5.71429C4.45192 29.6723 3.42857 28.649 3.42857 27.3866V17.3217C3.42857 16.7394 3.65078 16.1791 4.04983 15.7551L14.4807 4.67238ZM19.5374 21.7449H20.6803V27.3866H26.3764V17.1097L16.1451 6.23893L5.71429 17.3217L5.71429 27.3866L11.2109 27.3866V21.7694C11.2105 21.7587 11.2102 21.7465 11.2099 21.7331C11.209 21.6928 11.2088 21.6404 11.2105 21.5775C11.2139 21.4521 11.2248 21.2824 11.2541 21.0824C11.312 20.6871 11.4457 20.1453 11.7577 19.5928C12.4313 18.4 13.7841 17.4218 16.1451 17.4218C17.1787 17.4218 18.0304 17.6664 18.712 18.0924C19.3899 18.5161 19.8346 19.0784 20.1218 19.6169C20.4058 20.1496 20.5424 20.6697 20.6096 21.0479C20.6437 21.2396 20.6613 21.4021 20.6703 21.5214C20.6749 21.5813 20.6774 21.6309 20.6787 21.6686C20.6794 21.6874 20.6798 21.7033 20.68 21.7161L20.6802 21.7329L20.6803 21.7395L20.6803 21.7423V21.7437C20.6803 21.7437 20.6803 21.7449 19.5374 21.7449Z" fill="black"/>
</svg>
