<svg width="32" height="32" viewBox="0 0 32 32" fill="none" xmlns="http://www.w3.org/2000/svg">
<path fill-rule="evenodd" clip-rule="evenodd" d="M14.4808 4.67229C15.3833 3.7134 16.9072 3.7134 17.8097 4.67229L28.041 15.543C28.4401 15.967 28.6623 16.5273 28.6623 17.1096V27.3865C28.6623 28.6489 27.6389 29.6722 26.3766 29.6722H20.6804C19.418 29.6722 18.3947 28.6489 18.3947 27.3865V21.7529L18.3946 21.7497C18.3943 21.7408 18.3934 21.722 18.3914 21.695C18.3872 21.6404 18.3783 21.5544 18.3593 21.4479C18.3206 21.2299 18.2451 20.9549 18.1051 20.6925C17.9683 20.4359 17.7769 20.2032 17.5007 20.0306C17.2282 19.8603 16.8079 19.7074 16.1453 19.7074C14.5154 19.7074 13.9725 20.3193 13.7481 20.7166C13.6111 20.9592 13.5453 21.2125 13.5159 21.4134C13.5015 21.5116 13.4969 21.5903 13.4955 21.6389C13.4949 21.6622 13.4951 21.6779 13.4952 21.6846L13.4967 21.709V27.3865C13.4967 28.6489 12.4734 29.6722 11.211 29.6722H5.71443C4.45206 29.6722 3.42871 28.6489 3.42871 27.3865V17.3216C3.42871 16.7394 3.65091 16.1791 4.04997 15.7551L14.4808 4.67229ZM19.5376 21.7448H20.6804V27.3865H26.3766V17.1096L16.1453 6.23884L5.71442 17.3216L5.71443 27.3865L11.211 27.3865V21.7693C11.2106 21.7586 11.2103 21.7464 11.21 21.733C11.2092 21.6928 11.209 21.6403 11.2107 21.5774C11.214 21.4521 11.225 21.2823 11.2543 21.0823C11.3121 20.687 11.4458 20.1452 11.7578 19.5927C12.4314 18.3999 13.7842 17.4217 16.1453 17.4217C17.1788 17.4217 18.0306 17.6663 18.7121 18.0923C19.39 18.516 19.8347 19.0783 20.1219 19.6168C20.406 20.1495 20.5425 20.6696 20.6098 21.0478C20.6438 21.2395 20.6614 21.402 20.6705 21.5213C20.675 21.5812 20.6775 21.6308 20.6789 21.6685C20.6795 21.6873 20.6799 21.7032 20.6801 21.716L20.6804 21.7328L20.6804 21.7394L20.6804 21.7423V21.7436C20.6804 21.7436 20.6804 21.7448 19.5376 21.7448Z" fill="black"/>
</svg>
