<svg width="32" height="32" viewBox="0 0 32 32" fill="none" xmlns="http://www.w3.org/2000/svg">
<path fill-rule="evenodd" clip-rule="evenodd" d="M14.4807 4.67229C15.3832 3.7134 16.9071 3.7134 17.8096 4.67229L28.0409 15.543C28.4399 15.967 28.6621 16.5273 28.6621 17.1096V27.3865C28.6621 28.6489 27.6388 29.6722 26.3764 29.6722H20.6803C19.4179 29.6722 18.3946 28.6489 18.3946 27.3865V21.7529L18.3945 21.7497C18.3941 21.7408 18.3933 21.722 18.3913 21.695C18.3871 21.6404 18.3781 21.5544 18.3592 21.4479C18.3205 21.2299 18.245 20.9549 18.105 20.6925C17.9682 20.4359 17.7768 20.2032 17.5006 20.0306C17.2281 19.8603 16.8078 19.7074 16.1451 19.7074C14.5153 19.7074 13.9724 20.3193 13.748 20.7166C13.611 20.9592 13.5452 21.2125 13.5157 21.4134C13.5014 21.5116 13.4967 21.5903 13.4954 21.6389C13.4948 21.6622 13.495 21.6779 13.4951 21.6846L13.4966 21.709V27.3865C13.4966 28.6489 12.4733 29.6722 11.2109 29.6722H5.7143C4.45194 29.6722 3.42859 28.6489 3.42859 27.3865V17.3216C3.42859 16.7394 3.65079 16.1791 4.04985 15.7551L14.4807 4.67229ZM19.5374 21.7448H20.6803V27.3865H26.3764V17.1096L16.1451 6.23884L5.7143 17.3216L5.7143 27.3865L11.2109 27.3865V21.7693C11.2105 21.7586 11.2102 21.7464 11.2099 21.733C11.209 21.6928 11.2088 21.6403 11.2105 21.5774C11.2139 21.4521 11.2249 21.2823 11.2541 21.0823C11.312 20.687 11.4457 20.1452 11.7577 19.5927C12.4313 18.3999 13.7841 17.4217 16.1451 17.4217C17.1787 17.4217 18.0304 17.6663 18.712 18.0923C19.3899 18.516 19.8346 19.0783 20.1218 19.6168C20.4059 20.1495 20.5424 20.6696 20.6096 21.0478C20.6437 21.2395 20.6613 21.402 20.6704 21.5213C20.6749 21.5812 20.6774 21.6308 20.6787 21.6685C20.6794 21.6873 20.6798 21.7032 20.68 21.716L20.6802 21.7328L20.6803 21.7394L20.6803 21.7423V21.7436C20.6803 21.7436 20.6803 21.7448 19.5374 21.7448Z" fill="black"/>
</svg>
