<svg width="32" height="32" viewBox="0 0 32 32" fill="none" xmlns="http://www.w3.org/2000/svg">
<path fill-rule="evenodd" clip-rule="evenodd" d="M14.4806 4.67229C15.383 3.7134 16.907 3.7134 17.8095 4.67229L28.0408 15.543C28.4398 15.967 28.662 16.5273 28.662 17.1096V27.3865C28.662 28.6489 27.6387 29.6722 26.3763 29.6722H20.6802C19.4178 29.6722 18.3945 28.6489 18.3945 27.3865V21.7529L18.3943 21.7497C18.394 21.7408 18.3932 21.722 18.3911 21.695C18.387 21.6404 18.378 21.5544 18.3591 21.4479C18.3203 21.2299 18.2448 20.9549 18.1049 20.6925C17.968 20.4359 17.7767 20.2032 17.5005 20.0306C17.228 19.8603 16.8076 19.7074 16.145 19.7074C14.5151 19.7074 13.9722 20.3193 13.7479 20.7166C13.6109 20.9592 13.545 21.2125 13.5156 21.4134C13.5012 21.5116 13.4966 21.5903 13.4953 21.6389C13.4947 21.6622 13.4948 21.6779 13.495 21.6846L13.4965 21.709V27.3865C13.4965 28.6489 12.4731 29.6722 11.2108 29.6722H5.71418C4.45182 29.6722 3.42847 28.6489 3.42847 27.3865V17.3216C3.42847 16.7394 3.65067 16.1791 4.04972 15.7551L14.4806 4.67229ZM19.5373 21.7448H20.6802V27.3865H26.3763V17.1096L16.145 6.23884L5.71418 17.3216L5.71418 27.3865L11.2108 27.3865V21.7693C11.2104 21.7586 11.21 21.7464 11.2098 21.733C11.2089 21.6928 11.2087 21.6403 11.2104 21.5774C11.2138 21.4521 11.2247 21.2823 11.254 21.0823C11.3119 20.687 11.4456 20.1452 11.7576 19.5927C12.4312 18.3999 13.784 17.4217 16.145 17.4217C17.1786 17.4217 18.0303 17.6663 18.7119 18.0923C19.3898 18.516 19.8345 19.0783 20.1217 19.6168C20.4057 20.1495 20.5423 20.6696 20.6095 21.0478C20.6436 21.2395 20.6611 21.402 20.6702 21.5213C20.6748 21.5812 20.6773 21.6308 20.6786 21.6685C20.6793 21.6873 20.6797 21.7032 20.6799 21.716L20.6801 21.7328L20.6802 21.7394L20.6802 21.7423V21.7436C20.6802 21.7436 20.6802 21.7448 19.5373 21.7448Z" fill="black"/>
</svg>
