<svg width="16" height="12" viewBox="0 0 16 12" fill="none" xmlns="http://www.w3.org/2000/svg">
<g clip-path="url(#clip0_50_151)">
<path d="M8.08749 11.7043C6.34923 11.7041 4.61321 11.6104 2.89267 11.4239C2.42081 11.3712 1.98398 11.2055 1.64668 10.9513C1.30938 10.6971 1.08951 10.3679 1.01955 10.0123C0.524244 7.41669 0.524244 4.78108 1.01955 2.18552C1.08951 1.82991 1.30938 1.50069 1.64668 1.24649C1.98398 0.992292 2.42081 0.826591 2.89267 0.773866C6.33673 0.400899 9.83387 0.400899 13.2779 0.773866C13.7498 0.826591 14.1866 0.992292 14.5239 1.24649C14.8612 1.50069 15.0811 1.82991 15.151 2.18552C15.6464 4.78108 15.6464 7.41669 15.151 10.0123C15.0811 10.3679 14.8612 10.6971 14.5239 10.9513C14.1866 11.2055 13.7498 11.3712 13.2779 11.4239C11.5588 11.6102 9.82428 11.7039 8.08749 11.7043Z" fill="#F8E71C"/>
<path d="M8.52519 3.49828L9.14226 4.92312C9.16874 4.99447 9.22631 5.05701 9.3057 5.10069C9.38509 5.14437 9.48168 5.16663 9.57991 5.1639H11.5712C11.6801 5.14048 11.7968 5.14978 11.8967 5.18984C11.9967 5.2299 12.0722 5.29761 12.1073 5.37874C12.1425 5.45987 12.1345 5.5481 12.0851 5.6249C12.0357 5.70169 11.9488 5.76107 11.8425 5.79056L10.232 6.67119C10.1512 6.71235 10.0909 6.77268 10.0608 6.84259C10.0307 6.9125 10.0324 6.988 10.0657 7.05709L10.6784 8.48193C10.7407 8.55293 10.7642 8.63935 10.744 8.72311C10.7237 8.80686 10.6612 8.88147 10.5696 8.93132C10.4781 8.98116 10.3645 9.00239 10.2526 8.99056C10.1407 8.97872 10.0392 8.93475 9.96941 8.86783L8.35888 7.98719C8.28198 7.94199 8.18725 7.91745 8.08973 7.91745C7.99221 7.91745 7.89748 7.94199 7.82058 7.98719L6.20568 8.86783C6.13348 8.92895 6.03371 8.96767 5.92575 8.97645C5.81778 8.98524 5.70935 8.96346 5.6215 8.91535C5.53366 8.86724 5.47269 8.79623 5.45043 8.71613C5.42817 8.63603 5.44622 8.55256 5.50107 8.48193L6.11377 7.05709C6.14708 6.988 6.1488 6.9125 6.11867 6.84259C6.08854 6.77268 6.02829 6.71235 5.94747 6.67119L4.33694 5.79056C4.23068 5.76107 4.14373 5.70169 4.09435 5.6249C4.04496 5.5481 4.037 5.45987 4.07213 5.37874C4.10726 5.29761 4.18274 5.2299 4.28272 5.18984C4.3827 5.14978 4.49939 5.14048 4.60828 5.1639H6.59956C6.69779 5.16663 6.79438 5.14437 6.87377 5.10069C6.95316 5.05701 7.01073 4.99447 7.0372 4.92312L7.6499 3.49828C7.6499 3.41081 7.69601 3.32691 7.77808 3.26506C7.86016 3.20321 7.97147 3.16846 8.08754 3.16846C8.20361 3.16846 8.31493 3.20321 8.39701 3.26506C8.47908 3.32691 8.52519 3.41081 8.52519 3.49828Z" fill="black"/>
</g>
<defs>
<clipPath id="clip0_50_151">
<rect width="15.3" height="11.5307" fill="white" transform="translate(0.4375 0.331909)"/>
</clipPath>
</defs>
</svg>
