<svg width="45" height="36" viewBox="0 0 45 36" fill="none" xmlns="http://www.w3.org/2000/svg">
<rect width="45" height="36" fill="#212529" fill-opacity="0.95"/>
<path d="M35.625 14.25H35.025L32.6813 9.57002C32.2627 8.7379 31.5428 8.02485 30.614 7.52237C29.6852 7.0199 28.59 6.75094 27.4688 6.75002H16.2187C14.9162 6.74704 13.6527 7.10581 12.6439 7.76509C11.6351 8.42437 10.9437 9.3433 10.6875 10.365L9.7125 14.25H9.375C7.88316 14.25 6.45242 14.7241 5.39752 15.568C4.34263 16.412 3.75 17.5565 3.75 18.75V23.25C3.75 23.6478 3.94754 24.0294 4.29917 24.3107C4.65081 24.592 5.12772 24.75 5.625 24.75H7.5C7.5 25.9435 8.09263 27.0881 9.14752 27.932C10.2024 28.7759 11.6332 29.25 13.125 29.25C14.6168 29.25 16.0476 28.7759 17.1025 27.932C18.1574 27.0881 18.75 25.9435 18.75 24.75H26.25C26.25 25.9435 26.8426 27.0881 27.8975 27.932C28.9524 28.7759 30.3832 29.25 31.875 29.25C33.3668 29.25 34.7976 28.7759 35.8525 27.932C36.9074 27.0881 37.5 25.9435 37.5 24.75H39.375C39.8723 24.75 40.3492 24.592 40.7008 24.3107C41.0525 24.0294 41.25 23.6478 41.25 23.25V18.75C41.25 17.5565 40.6574 16.412 39.6025 15.568C38.5476 14.7241 37.1168 14.25 35.625 14.25ZM24.375 9.75002H27.4688C27.8411 9.75271 28.204 9.84403 28.5112 10.0123C28.8184 10.1806 29.056 10.4183 29.1937 10.695L30.975 14.25H24.375V9.75002ZM14.3625 10.95C14.4502 10.6061 14.6858 10.2977 15.0284 10.0784C15.371 9.85915 15.7989 9.74294 16.2375 9.75002H20.625V14.25H13.5375L14.3625 10.95ZM13.125 26.25C12.7542 26.25 12.3916 26.162 12.0833 25.9972C11.775 25.8324 11.5346 25.5981 11.3927 25.324C11.2508 25.05 11.2137 24.7484 11.286 24.4574C11.3584 24.1664 11.537 23.8991 11.7992 23.6894C12.0614 23.4796 12.3955 23.3367 12.7592 23.2788C13.1229 23.221 13.4999 23.2507 13.8425 23.3642C14.1851 23.4777 14.478 23.67 14.684 23.9167C14.89 24.1633 15 24.4533 15 24.75C15 25.1478 14.8025 25.5294 14.4508 25.8107C14.0992 26.092 13.6223 26.25 13.125 26.25ZM31.875 26.25C31.5042 26.25 31.1416 26.162 30.8333 25.9972C30.525 25.8324 30.2846 25.5981 30.1427 25.324C30.0008 25.05 29.9637 24.7484 30.036 24.4574C30.1084 24.1664 30.2869 23.8991 30.5492 23.6894C30.8114 23.4796 31.1455 23.3367 31.5092 23.2788C31.8729 23.221 32.2499 23.2507 32.5925 23.3642C32.9351 23.4777 33.228 23.67 33.434 23.9167C33.64 24.1633 33.75 24.4533 33.75 24.75C33.75 25.1478 33.5525 25.5294 33.2008 25.8107C32.8492 26.092 32.3723 26.25 31.875 26.25ZM37.5 21.75H36.0375C35.5103 21.286 34.8677 20.9152 34.1508 20.6615C33.434 20.4078 32.6588 20.2767 31.875 20.2767C31.0912 20.2767 30.316 20.4078 29.5992 20.6615C28.8823 20.9152 28.2397 21.286 27.7125 21.75H17.2875C16.7603 21.286 16.1177 20.9152 15.4008 20.6615C14.684 20.4078 13.9088 20.2767 13.125 20.2767C12.3412 20.2767 11.566 20.4078 10.8492 20.6615C10.1323 20.9152 9.48972 21.286 8.9625 21.75H7.5V18.75C7.5 18.3522 7.69754 17.9707 8.04918 17.6894C8.40081 17.4081 8.87772 17.25 9.375 17.25H35.625C36.1223 17.25 36.5992 17.4081 36.9508 17.6894C37.3025 17.9707 37.5 18.3522 37.5 18.75V21.75Z" fill="white" fill-opacity="0.95"/>
</svg>
